<svg id="Layer_1" data-name="Layer 1" xmlns="http://www.w3.org/2000/svg" width="210mm" height="183.15035mm" viewBox="0 0 595.27559 519.16636"><defs><style>.cls-1{fill:#af2b25;}.cls-2{fill:#231f20;}.cls-3{fill:#fff;}</style></defs><path class="cls-1" d="M379.80773,343.64655s54.88832,31.85313,108.42912.34725c24.0389-14.14559,26.14653-49.50345,22.47685-73.05884-7.22508-46.37726-50.01215-81.97011-57.289-88.75424-32.22124-30.03934-79.95265-25.73508-104.46187-16.31531-43.76888,16.82194-85.38715,44.98809-157.25085,98.70925C141.229,302.3128,98.20321,324.9311,64.50974,322.2325c-6.98844-.55972-26.9368-3.84017-29.4101-20.0004-1.743-11.38863,3.96107-45.91439,3.96107-45.91439s-1.15293,35.43992,3.69443,45.18914c4.41352,8.87666,30.96106,9.04747,67.09563-4.11592,48.32574-17.60449,171.61833-100.049,200.24563-117.0576,7.1267-4.23426,34.23138-20.41827,62.73172-25.81167,18.89723-3.5761,39.12715,1.47612,51.95819,3.8805,20.44359,3.83087,38.94588,15.87607,49.59024,24.7456,11.08235,9.23449,21.75386,20.96656,35.13465,45.77185,12.67248,23.49221,15.99281,48.97041,15.07924,69.39308-.55537,12.41522-4.79557,35.68251-20.13758,50.98729-11.74921,11.7207-34.645,20.43735-68.63914,16.34612C411.643,362.73711,379.80773,343.64655,379.80773,343.64655Z"/><path class="cls-1" d="M130.56406,248.46086s-6.88505-14.45812-4.00748-24.44491c.28883-1.00244-10.829,1.48492-19.62535,1.98979a29.33074,29.33074,0,0,1-10.37987-1.36685,71.09253,71.09253,0,0,0,17.23573-4.14386c12.33868-4.88153,19.23317-5.63636,21.09756-1.05067,1.46419,3.60135-2.44126,7.67623-3.25128,13.75819A135.78821,135.78821,0,0,0,130.56406,248.46086Z"/><path class="cls-1" d="M450.16069,465.555c-3.30086,3.20787-95.34349,6.75037-102.88429-15.74192-4.62187-13.78589,15.414-59.49218,15.414-59.49218s-16.16886,44.023-10.81141,56.30291C362.25574,470.40855,450.16069,465.555,450.16069,465.555Z"/><path class="cls-1" d="M511.74255,423.25147c1.23356.11778,7.74852-32.94032,8.23822-36.83936,1.02379-8.15137,2.69025-31.79382,2.2378-32.78536-1.16537-2.5539-3.35124,24.19764-4.7669,32.21507C515.839,394.97489,510.04813,423.08969,511.74255,423.25147Z"/><path class="cls-1" d="M405.67824,445.48949s7.82442.888,7.6617.00931c-1.26815-6.848,5.004-45.71987,8.75895-59.26656a5.90651,5.90651,0,0,1,2.32919-3.54725c1.01924-1.12388-5.84855-.73456-5.84855-.73456,2.06884,7.66634-2.915,27.02514-2.915,27.02514S410.941,438.15324,405.67824,445.48949Z"/><path class="cls-1" d="M469.67293,444.0251s6.80562-.48142,6.62961-1.35753c-1.65972-8.26143,4.59485-48.63019,8.34983-62.17688a13.94506,13.94506,0,0,1,2.70112-5.04426c1.01924-1.12388-6.063,1.77192-6.063,1.77192,2.06884,7.66635-2.915,27.02514-2.915,27.02514S474.93571,436.68884,469.67293,444.0251Z"/><path class="cls-1" d="M126.15982,251.7865s-23.68066,11.97659-31.44644,16.20978C78.361,276.91011,55.3015,283.25764,55.3015,283.25764s3.26491,5.727,5.07679,6.84966c4.30195,2.66549,6.39126,4.91617,7.89725,3.38455,14.56715-14.81508,33.709-27.36139,58.91328-38.95309C127.8562,254.23182,126.15982,251.7865,126.15982,251.7865Z"/><path class="cls-1" d="M377.03081,224.89026l-3.789.57183s-5.69345-22.50208-7.38272-30.05171c-2.25945-10.09782-10.07375-15.39537-7.54545-20.41415.64614-1.28261,3.61463-1.24251,3.97265-.28127C365.38489,183.03451,377.03081,224.89026,377.03081,224.89026Z"/><path class="cls-1" d="M326.17211,236.64542l-3.3148.67876s-4.67465-13.6753-8.03825-20.972c-4.33184-9.39714-8.28867-15.06813-10.56348-19.18447-.29289-.53,2.59415-2.54659,2.95217-1.58534,1.27392,3.42038,6.0468,11.22905,9.56858,18.71956C321.82071,225.03088,326.17211,236.64542,326.17211,236.64542Z"/><path class="cls-1" d="M281.90735,252.45924s-3.67355,3.65519-3.95792,2.464c-.77175-3.23266-4.12623-9.48691-6.5521-13.41417-5.4379-8.80343-10.733-18.05507-10.733-18.05507l2.95218-1.58534s6.30775,10.126,9.82953,17.61651C278.49042,250.21416,281.90735,252.45924,281.90735,252.45924Z"/><path class="cls-1" d="M425.4588,227.001l-3.53491-.45258s3.58453-21.71427,3.65892-29.25819c.102-10.347-.34711-17.76572-.85231-20.96119l3.0901,2.19747c-.01241,3.20477.5875,11.16557.17044,19.61605C427.31785,211.78288,425.4588,227.001,425.4588,227.001Z"/><path class="cls-1" d="M469.75451,253.41949c-.284.86175-3.02757-1.44826-2.55467-2.57793,3.24042-7.74072,6.62962-27.64811,6.88766-34.31723.02341-.60509,2.1595,2.1967,2.1595,2.1967C476.74212,225.25067,472.82989,244.08645,469.75451,253.41949Z"/><path class="cls-1" d="M394.65535,360.0253c.72267.95706,1.63092,6.55562.55556,7.55709-.609.56719-9.49784-1.96921-10.04667-3.073-.62066-1.24828-1.58534-6.45759-.89262-7.62451C385.094,355.49954,393.79527,358.88628,394.65535,360.0253Z"/><path class="cls-1" d="M418.10534,367.82185c.72267.95705,1.63092,6.55561.55556,7.55709-.609.56719-9.16543-1.57637-9.71427-2.68021-.62065-1.24828-1.58533-6.45758-.89261-7.6245C408.87636,363.68893,417.24526,366.68282,418.10534,367.82185Z"/><path class="cls-1" d="M440.88587,371.06849c-1.57914-1.04915-8.95879-.93758-9.43068-.33087-.83314,1.07118.724,6.61975,1.56792,7.72935.74627.98121,8.08435,1.04271,9.328.16326C442.3511,378.63023,441.65855,371.58184,440.88587,371.06849Z"/><path class="cls-1" d="M463.52723,369.29382c.556.60171,1.70048,7.38915,1.32774,7.8207-.42557.49272-9.8683,2.2804-10.37416,1.83026-.64789-.57654-1.87226-7.17607-1.46341-7.88645C453.36767,370.44972,463.07431,368.80366,463.52723,369.29382Z"/><path class="cls-1" d="M484.71874,365.24092c.57561.51859,2.079,6.76722,1.74107,7.19917-.38586.49316-9.47252,2.8967-9.99064,2.51572-.66361-.48794-2.234-6.5549-1.87688-7.25C474.89823,367.11029,484.24984,364.81846,484.71874,365.24092Z"/><path class="cls-1" d="M502.81807,355.5975c.53024-.5649,2.21853,6.074,2.07644,6.6037-.16222.60479-6.30841,4.80411-7.43814,5.01332-.80991.15-2.50956-5.0638-2.45279-5.84319C495.05221,360.70359,501.68183,356.808,502.81807,355.5975Z"/><path class="cls-1" d="M514.906,342.19675c.36018-.60437,2.98154,4.45259,2.95854,4.94988-.02626.56775-3.31891,6.419-4.27954,6.82534-.68869.29133-2.47673-4.59393-2.57786-5.2958C510.92053,348.07485,514.13419,343.49186,514.906,342.19675Z"/><path class="cls-1" d="M522.86063,326.61877c.36018-.60437,2.24966,5.05034,2.22666,5.54762-.02626.56775-2.28444,5.90708-3.24507,6.31346-.68869.29133-1.712-4.41523-1.81314-5.1171C519.94244,332.76143,522.08879,327.91388,522.86063,326.61877Z"/><path class="cls-1" d="M374.78486,447.04822c.87164,1.17585,1.95684,8.062.65414,9.29674-.73779.69928-11.48051-2.40067-12.14161-3.75753-.74759-1.5344-1.90194-7.94152-1.06156-9.37889C363.23347,441.50219,373.74748,445.64881,374.78486,447.04822Z"/><path class="cls-1" d="M404.97468,451.50541c.98243.98513,1.85992,6.75962.70355,8.00573-.65492.70574-11.58227-.69307-12.37587-1.86275-.89745-1.32273-2.22111-7.22864-1.54193-8.61476C392.56671,447.38811,403.80544,450.333,404.97468,451.50541Z"/><path class="cls-1" d="M434.53667,452.69561c.98244.98513,2.03039,7.68014.874,8.92625-.65492.70573-11.80542.90622-12.599-.26347-.89744-1.32273-2.22111-7.22864-1.54192-8.61476C422.076,451.09812,433.36744,451.52317,434.53667,452.69561Z"/><path class="cls-1" d="M461.84231,450.58185c.98244.98513,2.12958,7.74833.9732,8.99444-.65491.70574-12.08127,2.68837-12.87487,1.51869-.89745-1.32274-1.84833-7.54158-1.16915-8.9277C449.57777,450.52177,460.67308,449.40941,461.84231,450.58185Z"/><path class="cls-1" d="M487.83331,444.39785c.89106,1.06849,1.53045,7.12826.268,8.26675-.715.64479-9.97466,4.20879-10.66125,2.97325-.77643-1.39721-2.15306-6.67292-1.35346-7.99325C477.03581,446.0772,486.77281,443.1262,487.83331,444.39785Z"/><path class="cls-1" d="M507.71169,433.38473c.70275.10811.34043,6.29787-.34042,7.48936-.60457,1.058-6.53328,6.12-7.65958,5.10639-.85106-.766-.70146-6.74835-.48716-7.45925C499.54148,437.46984,506.12259,433.14026,507.71169,433.38473Z"/><path class="cls-1" d="M511.24052,362.584c-.69707,1.20408-15.4164,17.00635-65.21743,21.0355-37.72869,3.05244-69.29654-14.60826-70.28488-15.6768-3.89593-4.21208,31.244,16.105,69.88816,14.23558C496.23944,379.7298,514.35541,357.20344,511.24052,362.584Z"/><path class="cls-1" d="M481.70323,441.45107c-5.66879,3.04049-12.038,3.70066-25.0338,5.50139-38.12055,5.2821-85.92461-5.53531-90.31316-7.68349-4.8778-2.38767,20.714,5.07954,57.20236,6.02528C463.73915,446.33569,484.04629,440.19435,481.70323,441.45107Z"/><path class="cls-1" d="M181.27629,262.43917s3.83955-.4363-.08678-.936c-1.108-.141-25.819,7.3948-41.769,13.75041-17.65259,7.034-47.29518,17.32709-58.60641,18.64277-7.2619.84468-15.62286-.29855-19.81441-4.63981-7.55011-7.81977-5.73908-15.65456-6.61563-15.39313-3.445,1.02744,2.81183,13.23563,5.9942,16.24391,5.66568,5.35576,14.76559,5.84883,20.14294,5.01174,20.52728-3.19545,45.341-13.15686,60.18091-19.0209C150.6222,272.1782,181.27629,262.43917,181.27629,262.43917Z"/><path class="cls-1" d="M158.82584,266.4668c-.26035.69737-8.24819-.57385-10.88118-1.62022-2.50629-.996-10.66268-4.64677-10.42558-5.46966.36775-1.27629,8.62737,3.37088,11.10667,4.24C155.29021,265.95308,159.24707,265.33853,158.82584,266.4668Z"/><path class="cls-1" d="M474.46324,270.5506c-.00888,1.73582-33.24064-41.43531-88.11325-37.84672-38.941,2.54669-92.27482,20.08181-115.151,32.03824-4.1036,2.14477-5.91513,1.98861-4.28956,1.14057,43.72624-22.81148,75.48819-29.804,116.64255-34.75645C428.93322,225.66516,474.50044,263.27323,474.46324,270.5506Z"/><path class="cls-1" d="M486.45168,272.6582c-.00887,1.73582-40.92315-51.19153-92.678-48.96429-40.18672,1.72942-94.03276,20.28727-116.909,32.24369-4.1036,2.14478-5.91513,1.98861-4.28956,1.14057,43.72624-22.81147,86.72091-32.8419,121.9734-35.04243C441.12045,219.12863,486.48888,265.38083,486.45168,272.6582Z"/><path class="cls-1" d="M71.80115,304.72055c-.77343.84559-7.82561.4141-8.5092-.15645-.81738-.68223-.71564-6.58151.13183-7.16994,1.22866-.85311,7.39033-.83158,8.5092.15645C72.72871,298.25328,72.62639,303.81833,71.80115,304.72055Z"/><path class="cls-1" d="M54.90455,302.39047c-1.20522.19932-5.68836-5.62164-5.903-6.54927-.25668-1.10921,2.38568-5.16369,3.48806-5.09892,1.59823.09392,4.77878,4.24006,5.09517,5.80376C57.80977,297.65812,56.19049,302.17781,54.90455,302.39047Z"/><path class="cls-1" d="M46.04775,287.08943c-.66664-.84786-1.90607-7.767-1.60363-8.66989.36164-1.07955,3.44509-1.71429,4.07746-.809.88333,1.26456,1.98283,7.55245,1.70156,8.83792C49.98061,287.55686,46.85337,288.11405,46.04775,287.08943Z"/><path class="cls-1" d="M44.61563,271.0662c-.4123-.87953-.61406-6.54354-.14-7.2686.56692-.867,3.03.5455,3.39858,1.468.51486,1.28861.56458,5.68572.02425,6.74928C47.43262,272.93195,45.11389,272.1291,44.61563,271.0662Z"/><path class="cls-1" d="M45.34761,258.76445c-.26479-.93459.33416-4.95988.91919-5.59881.69955-.764,2.902,1.02788,3.11675,1.99783a8.55054,8.55054,0,0,1-.94947,5.06761C47.82614,261.06081,45.66759,259.89387,45.34761,258.76445Z"/><path class="cls-1" d="M88.45869,302.09318c-.57583.86836-7.25061,1.8277-7.99012,1.4688-.88425-.42914-1.82115-5.49027-1.13105-6.15279,1.0005-.96052,6.77024-2.10253,7.99011-1.4688C88.1952,296.39109,89.07308,301.16666,88.45869,302.09318Z"/><path class="cls-1" d="M103.666,297.2875c-.49014.81526-6.86831,2.55729-7.61053,2.35653-.8875-.24-2.18019-4.39356-1.56385-5.0505.89357-.95244,6.383-2.723,7.61054-2.35654C102.9752,292.49762,104.189,296.41763,103.666,297.2875Z"/><path class="cls-1" d="M117.331,291.5198c-.36678.66678-5.412,2.25531-6.01154,2.11762-.71685-.16464-1.87783-3.44528-1.4053-3.98939.68507-.78883,5.019-2.37287,6.01155-2.11762C116.6316,287.71194,117.72234,290.80835,117.331,291.5198Z"/><path class="cls-1" d="M130.84415,285.84149c-.31.64133-4.94762,2.37472-5.51477,2.27556-.67817-.11857-1.925-3.12785-1.51011-3.65971.60148-.7711,4.57442-2.46524,5.51477-2.27556C130.00281,282.31668,131.1749,285.15721,130.84415,285.84149Z"/><path class="cls-1" d="M142.93324,280.66158c-.28447.58854-4.54033,2.17923-5.0608,2.08823-.62234-.10881-1.76652-2.87036-1.38579-3.35845.552-.70761,4.19785-2.2623,5.06079-2.08823C142.16116,277.42692,143.23676,280.03363,142.93324,280.66158Z"/><path class="cls-1" d="M152.813,275.98239c-.23554.4873-3.75936,1.80439-4.1903,1.729-.51529-.09009-1.46267-2.37664-1.14743-2.78077a9.00481,9.00481,0,0,1,4.1903-1.729C152.17372,273.30412,153.06431,275.46245,152.813,275.98239Z"/><path class="cls-1" d="M161.321,272.12238a9.38123,9.38123,0,0,1-3.38021,1.39478c-.41568-.07268-1.1799-1.91718-.92561-2.24318a7.264,7.264,0,0,1,3.38022-1.39478A2.954,2.954,0,0,1,161.321,272.12238Z"/><path class="cls-1" d="M169.41893,268.372a7.92161,7.92161,0,0,1-2.85429,1.17777c-.351-.06137-.99631-1.61889-.78159-1.89417a6.13378,6.13378,0,0,1,2.85429-1.17777A2.49439,2.49439,0,0,1,169.41893,268.372Z"/><path class="cls-1" d="M121.60921,230.386a10.2132,10.2132,0,0,1-.35538-3.70353c.17875-.38157,2.066-.56563,2.29413-.22014a7.90145,7.90145,0,0,1,.35539,3.70352A2.63583,2.63583,0,0,1,121.60921,230.386Z"/><path class="cls-1" d="M122.34018,238.44437a11.30909,11.30909,0,0,1-.59575-3.9969c.16775-.42336,2.16476-.72425,2.42777-.36186a8.74749,8.74749,0,0,1,.59575,3.9969A2.75832,2.75832,0,0,1,122.34018,238.44437Z"/><path class="cls-1" d="M124.3861,245.5723a10.58556,10.58556,0,0,1-.96135-3.65828c.113-.411,1.94047-.89433,2.22209-.58394a8.1879,8.1879,0,0,1,.96135,3.65829C126.48635,245.39192,124.76165,245.84515,124.3861,245.5723Z"/><path class="cls-1" d="M128.09355,253.29846a9.94493,9.94493,0,0,1-1.47278-3.22684c.0384-.39768,1.64688-1.1349,1.95639-.89293a7.69208,7.69208,0,0,1,1.47278,3.22684C130.00218,252.79774,128.4837,253.49079,128.09355,253.29846Z"/><path class="cls-1" d="M133.18447,260.1199a9.94461,9.94461,0,0,1-2.05764-2.88923c-.03767-.39775,1.40193-1.42644,1.7517-1.24752a7.692,7.692,0,0,1,2.05764,2.88923C134.96361,259.26653,133.604,260.23481,133.18447,260.1199Z"/><path class="cls-1" d="M139.698,264.5994a8.37884,8.37884,0,0,1-2.85084-1.525c-.17233-.36046.82505-1.82194,1.215-1.77439a7.69187,7.69187,0,0,1,2.92665,2.00407C141.15027,263.66469,140.13139,264.56283,139.698,264.5994Z"/><path class="cls-1" d="M147.18143,268.32023a9.7071,9.7071,0,0,1-3.17393-1.48055c-.224-.33084-.105-2.04958.28768-2.06051a6.3514,6.3514,0,0,1,2.78862,1.61169C147.29707,266.72346,147.60462,268.21965,147.18143,268.32023Z"/><path class="cls-1" d="M155.55569,270.439a9.7069,9.7069,0,0,1-3.38286-.9067c-.278-.2869-.45947-2.00017-.07462-2.07916a6.35151,6.35151,0,0,1,3.02619,1.10278C155.3922,268.84644,155.955,270.26646,155.55569,270.439Z"/><path class="cls-1" d="M193.85965,269.72889c-.144.43257-2.92584,1.83164-3.29088,1.802-.43649-.03548-1.46181-1.9018-1.243-2.27009a7.17955,7.17955,0,0,1,3.29088-1.802C193.0485,267.50538,194.01329,269.26734,193.85965,269.72889Z"/><path class="cls-1" d="M186.63369,273.86431a8.62835,8.62835,0,0,1-3.064,1.67773c-.4064-.033,1.34126-3.85227,1.90665-3.79129C185.87847,271.79412,186.77674,273.43459,186.63369,273.86431Z"/><path class="cls-1" d="M220.79037,251.434c-.17586.52829-3.57321,2.23692-4.019,2.20068-.53307-.04333-1.78524-2.32259-1.51805-2.77237.38736-.65208,3.27739-2.28067,4.019-2.20068C219.79975,248.71856,220.978,250.87037,220.79037,251.434Z"/><path class="cls-1" d="M230.607,244.31157c-.143.644-3.93922,3.07106-4.46905,3.08258-.63354.01378-2.3866-2.52021-2.12641-3.08281.37722-.81566,3.58526-3.08665,4.46906-3.08259C229.10917,241.23164,230.7596,243.62441,230.607,244.31157Z"/><path class="cls-1" d="M240.43448,237.26984c-.143.644-3.93922,3.07107-4.46906,3.08259-.63353.01378-2.38659-2.52021-2.1264-3.08281.37722-.81566,3.58526-3.08665,4.46906-3.08259C238.93662,234.18992,240.58706,236.58269,240.43448,237.26984Z"/><path class="cls-1" d="M251.05373,229.23c-.143.644-3.93923,3.07106-4.46906,3.08258-.63354.01378-2.3866-2.5202-2.12641-3.08281.37722-.81566,3.58526-3.08665,4.46906-3.08258C249.55587,226.15,251.20631,228.54279,251.05373,229.23Z"/><path class="cls-1" d="M260.70917,221.96042c-.143.644-3.93922,3.07106-4.46906,3.08259-.63354.01378-2.38659-2.52021-2.1264-3.08281.37722-.81566,3.58526-3.08665,4.46905-3.08259C259.21131,218.8805,260.86175,221.27326,260.70917,221.96042Z"/><path class="cls-1" d="M270.67682,214.79154c-.143.644-3.93922,3.07106-4.46906,3.08259-.63353.01377-2.38659-2.52021-2.1264-3.08282.37722-.81566,3.58526-3.08665,4.46906-3.08258C269.179,211.71162,270.8294,214.10438,270.67682,214.79154Z"/><path class="cls-1" d="M281.38721,208.10831c-.143.644-3.93922,3.07106-4.46906,3.08259-.63353.01378-2.38659-2.52021-2.1264-3.08282.37722-.81565,3.58526-3.08664,4.46906-3.08258C279.88935,205.02839,281.53979,207.42115,281.38721,208.10831Z"/><path class="cls-1" d="M290.49783,202.0205c-.14705.64312-3.95848,3.04621-4.48837,3.0544-.63362.00979-2.37069-2.53518-2.107-3.09614.38234-.81327,3.60462-3.064,4.48837-3.05439C289.01939,198.93121,290.65473,201.33432,290.49783,202.0205Z"/><path class="cls-1" d="M301.58129,195.65654c-.20778.62614-4.23124,2.65434-4.7595,2.61189-.63165-.05075-2.1178-2.74995-1.80171-3.28316.45825-.77305,3.8807-2.70585,4.7595-2.61189C300.40457,192.4402,301.803,194.98847,301.58129,195.65654Z"/><path class="cls-1" d="M314.5848,188.0553c-.20779.62613-4.23125,2.65433-4.7595,2.61189-.63165-.05075-2.1178-2.75-1.80172-3.28316.45825-.773,3.8807-2.70586,4.7595-2.6119C313.40807,184.839,314.8065,187.38723,314.5848,188.0553Z"/><path class="cls-1" d="M328.14756,180.84928c-.25053.61029-4.40444,2.3558-4.92851,2.277-.62664-.09425-1.92283-2.88963-1.57069-3.39974.51055-.73956,4.0583-2.4314,4.92851-2.277C327.19576,177.55936,328.41487,180.19811,328.14756,180.84928Z"/><path class="cls-1" d="M340.465,175.32819c-.30312.586-4.59418,1.96022-5.1093,1.83571-.616-.14887-1.66185-3.04722-1.2663-3.52446.57347-.6919,4.256-2.0659,5.10931-1.83571C339.80552,171.96744,340.78837,174.703,340.465,175.32819Z"/><path class="cls-1" d="M353.73573,170.08112c-.33586.56781-4.698,1.69649-5.20519,1.543-.60652-.18357-1.48635-3.13656-1.06437-3.5906.61179-.65827,4.36632-1.8212,5.2052-1.543C353.268,166.68837,354.09409,169.47527,353.73573,170.08112Z"/><path class="cls-1" d="M368.56507,166.994c-.43606.6012-5.44388,1.40845-5.99631,1.18314-.66057-.26942-1.33679-3.67171-.81614-4.13633.75482-.67362,5.08524-1.583,5.99631-1.18314C368.39687,163.14208,369.03032,166.35254,368.56507,166.994Z"/><path class="cls-1" d="M383.24179,165.57408c-.52759.52273-5.6.50908-6.10874.19735-.60826-.37275-.72509-3.83961-.13613-4.21388.85387-.54261,5.27437-.73938,6.10873-.19735C383.699,161.74569,383.8047,165.01635,383.24179,165.57408Z"/><path class="cls-1" d="M398.044,166.08617c-.58155.44242-5.528-.22-5.98435-.58914-.54567-.44145-.216-3.83835.4064-4.12808.90239-.42006,5.23978-.04638,5.98435.58915C398.97988,162.41007,398.66445,165.61413,398.044,166.08617Z"/><path class="cls-1" d="M412.11117,168.86549c-.63664.35863-5.44584-.97468-5.84735-1.40286-.4801-.512.31148-3.83178.96771-4.03358.9514-.29256,5.1968.6714,5.84735,1.40287C413.54155,165.35213,412.79044,168.48284,412.11117,168.86549Z"/><path class="cls-1" d="M425.23741,172.61143c-.68825.24544-5.20158-1.88436-5.52463-2.37445-.38629-.586.957-3.72341,1.63792-3.811.98724-.12693,5.00759,1.54323,5.52463,2.37445C427.243,169.39163,425.97175,172.34955,425.23741,172.61143Z"/><path class="cls-1" d="M435.69137,178.30309c-.65982.11945-4.42833-2.483-4.64765-2.975-.26225-.58829,1.42253-3.22843,2.05218-3.206.91284.0325,4.30363,2.14514,4.64765,2.975C437.98821,175.68726,436.39539,178.17564,435.69137,178.30309Z"/><path class="cls-1" d="M446.70081,185.95331c-.66866.03654-4.08029-3.00967-4.23661-3.52441-.18691-.61548,1.81-3.02276,2.43118-2.92246.90055.14542,3.99863,2.65942,4.23662,3.52441C449.30125,183.646,447.41426,185.91433,446.70081,185.95331Z"/><path class="cls-1" d="M455.89166,193.37c-.67019.022-4.01922-3.10182-4.16449-3.62053-.17372-.62023,1.99487-2.24564,2.61452-2.1317.89836.16518,3.94508,2.74941,4.16449,3.62053C458.66222,191.85785,456.60673,193.34653,455.89166,193.37Z"/><path class="cls-1" d="M464.92667,201.527c-.66935-.04019-3.71444-3.461-3.811-3.99091-.11548-.63366,2.19441-2.0511,2.80084-1.88022.87918.24773,3.67328,3.1032,3.811,3.99091C467.82545,200.27806,465.64084,201.56984,464.92667,201.527Z"/><path class="cls-1" d="M473.682,210.70533c-.66652-.07335-3.53818-3.641-3.60835-4.175-.08391-.63861,2.54406-1.68365,3.14126-1.48291.86582.29105,3.51483,3.28161,3.60835,4.175C476.88977,209.85783,474.39316,210.78358,473.682,210.70533Z"/><path class="cls-1" d="M479.06754,217.37056c-.01018-.644,2.88845-.66655,3.45871-.39869.82677.38834,3.11566,3.66274,3.10619,4.561-.00673.63885-2.7612.55792-3.45872.39869"/><path class="cls-1" d="M486.95691,227.91061c.0368-.61015,2.75811-.37743,3.27389-.07406.74778.43984,2.65974,3.73808,2.58621,4.587-.05228.60378-2.63089.28583-3.27388.07406"/><path class="cls-1" d="M492.85246,238.94414c-.02124-.61088,2.0866-.24537,2.62884.00772.78612.36692,2.70888,3.997,2.71621,4.84912.00522.606-2.29851.006-2.95869-.14381"/><path class="cls-1" d="M366.34059,231.9492c-.36014.48664-4.4484,1.1055-4.89693.91752-.53633-.22477-1.06094-3.00331-.63292-3.378.62054-.54318,4.15743-1.2506,4.89693-.91752C366.23359,228.80812,366.72484,231.43,366.34059,231.9492Z"/><path class="cls-1" d="M380.40616,229.82329c-.38133.47022-4.493.90744-4.93275.69978-.52585-.2483-.92691-3.04734-.48272-3.40267.644-.51517,4.20873-1.06528,4.93276-.69978C380.43837,226.68056,380.813,229.32159,380.40616,229.82329Z"/><path class="cls-1" d="M392.381,229.10509c-.43171.42442-4.56646.39724-4.98014.14153-.49464-.30577.41556-3.112.89684-3.41517.69775-.4396,4.30172-.586,4.98013-.14153C393.7603,226.006,392.84161,228.65223,392.381,229.10509Z"/><path class="cls-1" d="M403.38335,229.65013c-.49179.35306-4.57328-.309-4.94276-.62524-.44179-.37814.90983-2.90215,1.432-3.12783.757-.32719,4.34068.08182,4.94275.62524C405.24351,226.90878,403.90808,229.27342,403.38335,229.65013Z"/><path class="cls-1" d="M413.53357,231.5828c-.53722.27911-4.4821-.95976-4.80257-1.32558-.38319-.43741,1.31545-2.74223,1.8645-2.89093.796-.21558,4.28439.70165,4.80257,1.32558C415.76659,229.1356,414.10677,231.285,413.53357,231.5828Z"/><path class="cls-1" d="M423.07916,234.22373c-.53722.27912-4.4821-.95976-4.80256-1.32557-.38319-.43742,1.31545-2.74223,1.8645-2.89093.796-.21559,4.28438.70164,4.80256,1.32557C425.31219,231.77654,423.65236,233.92592,423.07916,234.22373Z"/><path class="cls-1" d="M432.17227,237.43554a16.08512,16.08512,0,0,1-4.47881-2.10648c-.31259-.45982,1.24167-2.55623,1.78835-2.495.79256.08876,3.2976,2.12715,3.71617,2.774C433.49566,236.068,432.76116,237.38959,432.17227,237.43554Z"/><path class="cls-1" d="M353.575,234.36133c-.33049.44657-4.08222,1.01449-4.49383.842-.49217-.20627-.9736-2.75609-.58081-3.0999.56945-.49846,3.8152-1.14765,4.49382-.842C353.47686,231.47881,353.92767,233.88484,353.575,234.36133Z"/><path class="cls-1" d="M342.29584,236.88348c-.3035.46534-4.01508,1.25411-4.43617,1.10625-.50351-.17681-1.13487-2.69369-.7631-3.06013.539-.53126,3.74066-1.37125,4.43617-1.10625C342.02738,234.01182,342.61967,236.387,342.29584,236.88348Z"/><path class="cls-1" d="M331.57318,239.353c-.27852.427-3.68456,1.15088-4.071,1.01519-.46207-.16225-1.04145-2.47195-.70029-2.80823a8.02856,8.02856,0,0,1,4.071-1.01518C331.32682,236.71775,331.87036,238.89739,331.57318,239.353Z"/><path class="cls-1" d="M319.59693,242.86331c-.243.39984-3.34584,1.16349-3.70425,1.05034-.42856-.13528-1.02761-2.23681-.72454-2.55524a7.36777,7.36777,0,0,1,3.70425-1.05034A3.34973,3.34973,0,0,1,319.59693,242.86331Z"/><path class="cls-1" d="M308.32935,246.66445c-.22378.41088-3.28708,1.32039-3.65044,1.22432-.43448-.11487-1.13223-2.18572-.84455-2.51812a7.36768,7.36768,0,0,1,3.65044-1.22432A3.34971,3.34971,0,0,1,308.32935,246.66445Z"/><path class="cls-1" d="M297.13125,251.16166c-.22379.41088-3.28709,1.32038-3.65045,1.22432-.43448-.11488-1.13223-2.18573-.84455-2.51813a7.36778,7.36778,0,0,1,3.65045-1.22432A3.34978,3.34978,0,0,1,297.13125,251.16166Z"/><path class="cls-1" d="M278.27413,259.27837a9.1095,9.1095,0,0,1-3.3,1.46516c-.41375-.06437-1.23012-1.896-.989-2.22764a7.05491,7.05491,0,0,1,3.3-1.46516A3.01362,3.01362,0,0,1,278.27413,259.27837Z"/><path class="cls-1" d="M441.17413,241.83715a16.08553,16.08553,0,0,1-4.47881-2.10648c-.31258-.45983,1.24168-2.55623,1.78835-2.495.79257.08876,3.2976,2.12716,3.71617,2.774C442.49752,240.46962,441.763,241.79119,441.17413,241.83715Z"/><path class="cls-1" d="M449.73551,246.308a16.08553,16.08553,0,0,1-4.47881-2.10648c-.31258-.45983,1.24168-2.55623,1.78835-2.495.79257.08876,3.2976,2.12716,3.71617,2.774C451.0589,244.94045,450.3244,246.262,449.73551,246.308Z"/><path class="cls-1" d="M457.75363,251.74742c-.55192.04307-3.60582-2.18879-3.86723-2.57334-.31258-.45983.6301-2.08937,1.17677-2.02815.79257.08876,3.2976,2.12716,3.71617,2.774C459.077,250.37989,458.34252,251.70146,457.75363,251.74742Z"/><path class="cls-1" d="M464.88028,257.30211c-.51383-.02167-3.08212-2.41985-3.28044-2.80361-.23713-.45887.81358-1.85691,1.311-1.73962a10.04205,10.04205,0,0,1,3.11878,2.97183C466.253,256.18808,465.42852,257.32524,464.88028,257.30211Z"/><path class="cls-1" d="M472.32467,263.67615a13.87542,13.87542,0,0,1-3.39456-2.86621c-.19148-.47972.99-1.76918,1.47362-1.60417a10.04216,10.04216,0,0,1,2.81562,3.26051C473.39728,262.94317,472.86807,263.75238,472.32467,263.67615Z"/><path class="cls-1" d="M479.02136,271.00471c-.50521-.09616-2.50355-2.51863-2.644-2.92715-.16789-.48848.73847-1.28839,1.21351-1.1a7.52776,7.52776,0,0,1,2.383,2.86232C480.1284,270.32485,479.56041,271.10732,479.02136,271.00471Z"/><path class="cls-1" d="M483.82873,278.01285a9.84873,9.84873,0,0,1-1.996-3.11763c-.07426-.48267.92277-1.11061,1.33995-.868a6.81449,6.81449,0,0,1,1.76017,3.02073C484.995,277.52546,484.3214,278.18352,483.82873,278.01285Z"/><path class="cls-1" d="M487.81587,285.22893a7.95093,7.95093,0,0,1-1.68129-2.65166c-.06629-.44435,1.20036-1.05524,1.57684-.819.54581.34255,1.14238,2.27768,1.22025,2.8953C488.98705,285.09285,488.26066,285.402,487.81587,285.22893Z"/><path class="cls-1" d="M262.4773,223.25365c-2.73367,2.06419-17.54567,11.818-17.54567,11.818S261.06794,222.843,267.114,218.84632c2.10677-1.39265,8.99444-5.64708,8.99444-5.64708S264.65256,221.61111,262.4773,223.25365Z"/><path class="cls-1" d="M308.984,193.95659c-2.89284,1.83448-17.28685,10.13277-17.28685,10.13277s15.91566-10.657,22.2674-14.14744c2.21328-1.21626,12.26111-5.23843,12.26111-5.23843S311.28589,192.49685,308.984,193.95659Z"/><path class="cls-1" d="M369.92707,170.6385c-3.40957.3296-23.30629,4.853-23.30629,4.853s14.74577-6.21056,25.70522-6.85522a68.64875,68.64875,0,0,1,20.10265,1.98983S373.8385,170.26038,369.92707,170.6385Z"/><path class="cls-1" d="M420.661,174.91881s-2.25379-4.36089.83684-2.49191c6.32252,3.82339,25.52278,16.33265,39.90464,28.53,19.09843,16.19744,30.20043,40.62686,30.20043,40.62686s-11.58117-21.58386-30.98845-38.923C438.62739,183.01677,420.661,174.91881,420.661,174.91881Z"/><path class="cls-2" d="M131.24187,402.398c.322,3.47307-7.686,11.64386-7.686,11.64386S97.91724,379.48723,94.542,373.88042a62.11273,62.11273,0,0,1-2.994-7.75468s3.76291-3.58378,5.15119-3.0312C104.26791,366.10716,130.98153,399.58992,131.24187,402.398Z"/><path class="cls-2" d="M167.33741,378.57608c.47065,33.59519-37.55744,44.53817-37.55744,44.53817s-1.70879-5.58816,8.01711-13.36142c3.71827-2.97177,11.55838-3.41855,15.46287-6.23906a9.53181,9.53181,0,0,0,3.1149-11.22289c-6.0252-12.90588-32.31423-6.816-28.29433-13.97519,5.85786-10.43255,7.2061-17.17372,2.53842-19.94458-13.83334-8.21185-46.53236,16.62429-47.63456,14.79334-.33013-.5484,4.95809-8.65409,17.50848-16.2253,13.703-8.26654,35.02093-15.83562,41.11654-10.73,6.51526,5.45706-7.07976,19.71321-1.59931,20.80931C154.84068,369.98455,167.26643,373.50956,167.33741,378.57608Z"/><path class="cls-2" d="M198.17015,386.62834c.52069,5.61609-9.23389,13.47886-9.23389,13.47886s-10.43777-49.95743-10.9338-56.48295c-.15752-2.07217.14878-10.41395.14878-10.41395s5.86495-.26768,6.19258,1.19017C188.76973,354.094,197.90981,383.82029,198.17015,386.62834Z"/><path class="cls-2" d="M234.14482,360.75155c-6.412,32.981-29.69841,38.73617-29.69841,38.73617s3.66261-11.99446,8.06153-13.95655c4.79977-2.14089,13.45447-5.86714,10.7394-12.11551-3.814-8.77739-25.10506-9.37259-22.36963-14.8905,5.31415-10.71972,8.40914-9.47547,5.80962-14.2407-7.0759-12.971-35.40048-5.05825-36.10481-7.076-.211-.60433,8.11917-7.01155,21.953-11.85514,15.10433-5.28843,21.28352-.04647,24.97489,4.46315,5.38318,6.57644-7.8461,15.44456-2.70579,17.63863C228.71477,353.39251,235.11182,355.77767,234.14482,360.75155Z"/><path class="cls-2" d="M270.18762,381.51442c.52069,5.6161-18.34555,24.51514-18.34555,24.51514,5.79922-24.96147,4.33633-53.42628,4.78267-75.32038.04236-2.07772,7.54472.21726,7.58731,1.71087C264.96827,358.93844,269.92728,378.70637,270.18762,381.51442Z"/><path class="cls-2" d="M281.56552,357.42286c-4.17023,2.4816-13.446,4.21641-18.98688,4.03539-3.309-.10811-.49279-3.48784.53-5.551,5.31415-10.71972,24.22619-7.14866,22.59458-11.195-6.72256-16.67164-37.26877-5.49966-40.52454-10.84482-1.9898-3.26676,11.76531-12.6517,28.37185-11.31274,15.95161,1.28615,19.74191,3.46437,22.61315,8.53575C300.02242,337.906,288.2945,353.4186,281.56552,357.42286Z"/><path class="cls-2" d="M326.6338,332.978c3.78746-3.03385,8.202-2.473,13.71481-3.05909,3.29224-.35,2.43611,11.7529-4.08192,15.8162-10.15331,6.32951-14.98771-11.11743-27.848,10.86953-5.17636,8.84989-4.80645,26.34384.51136,30.80486,6.23089,5.227,18.07566-3.34733,18.07566-3.34733s-5.31258,19.68191-21.953,18.866c-14.41217-.70668-5.83351-29.39482-4.47239-33.96624C307.94445,344.22878,320.52243,337.87336,326.6338,332.978Z"/><path class="cls-2" d="M280.04943,116.13644c-2.464.716-14.74568-3.47579-27.29944-2.994-8.05856.30925-14.626,3.74715-14.7748.13945-.17882-4.33649,1.13195-16.3474,4.80718-24.51928,4.98367-11.08117,14.53307-18.2709,14.53307-18.2709A123.565,123.565,0,0,0,276.03265,88.837c7.87554,6.07172,18.46617,4.37017,18.94967,5.57893C297.077,99.6527,283.55985,115.11643,280.04943,116.13644Z"/><path class="cls-2" d="M265.61553,141.48635s.47172,5.68947,19.11084,8.31879c16.6153,2.34383,50.16936,1.71943,71.565.85551,28.09289-1.13435,77.83221,4.6167,75.59416,6.25466-12.47015,9.12653-36.40277,25.91288-59.22943,44.72415-42.27843,34.84133-84.34193,73.49354-89.0394,72.57526-14.09816-2.756-40.0446-7.7769-61.40513-15.6334-50.259-18.48552-52.90038-31.4031-52.90038-31.4031s23.636-19.75182,31.03114-26.86549c8.99206-8.64978,26.24437-26.74751,34.10574-36.43641,4.36195-5.376,16.278-22.40238,16.278-22.40238s-23.961,25.45148-47.28437,47.53221c-16.99255,16.08723-33.31229,27.63414-38.34571,34.10567-8.90076,11.44381-13.71414,22.06662-12.95548,23.51817,2.14477,4.10359,12.58351,11.86448,29.67975,16.31523,77.10553,20.07325,80.67005,24.40285,99.52763,34.53973,1.611.866,14.96543-18.93191,35.829-40.21767,16.60682-16.94286,37.72436-34.35463,58.23143-51.98293,16.42679-14.12081,58.817-37.88043,66.265-44.12287.30035-.25173-6.29448,31.77887-7.15347,66.06663-.7311,29.18324,1.45836,67.79663,2.41745,78.14123.69426,7.48813,15.09514-15.35,15.3854-16.00524.51718-1.16753-7.81043-41.82877-7.41367-78.94708.10472-9.79683,2.28109-43.01421,4.74833-56.61968,0,0,4.24618-5.114,4.90945-7.141.57883-1.76895,7.24347,19.60453,13.1228,18.51578,10.042-1.85963,5.99518-43.87213,5.50457-44.12294-2.48571-1.27075-13.73781,13.15258-14.468,12.54632-.10089-.08376-7.36726.41221-7.36726.41221-.201-3.11031,2.48264-23.05017,3.46826-35.956.65974-8.63868-4.38469.32015-5.54791.42151-1.10379.09617-4.43918,36.43126-5.69672,36.54182-16.32358,1.43514-45.06042,4.93644-75.39581,5.56642-28.34785.5887-58.22823-3.5153-79.68536-2.64077C263.01472,138.97943,265.61553,141.48635,265.61553,141.48635Z"/><path class="cls-2" d="M453.05129,99.67886l-3.34735,2.95682s-24.78584,4.50339-29.48452,6.239c-4.21175,1.55579-16.23462,7.68028-16.23462,7.68028s7.66791-15.61473,18.26784-19.13563c6.96618-2.3139,27.77055-4.27713,29.52481-7.891.86409-1.78008-2.02079-8.108-9.1308-8.1762a50.11633,50.11633,0,0,0-12.09693,1.9805C426.625,84.63,419.65265,87.92225,415.69433,89.113c-2.57324.77408-10.90056,2.36482-10.90056,2.36482l7.62994-12.08065s7.87665-1.78418,10.40854-2.68483c6.0903-2.16647,14.47726-7.35484,21.30212-8.359,3.83138-.56374,13.47919-1.28207,16.27181,1.40095,6.94883,6.67609,1.07857,17.97647,1.07857,17.97647Z"/><path class="cls-3" d="M476.57487,124.2315a30.17247,30.17247,0,0,1,4.65914,20.60243c-.51862,4.269-2.93348,12.75909-5.25426,16.37951-1.76279,2.74993-8.05843,3.22336-8.05843,3.22336l5.331-8.60391a27.7304,27.7304,0,0,1-9.47406-8.97817c-2.21916-3.57051-2.71343-8.07133-1.76432-10.579,1.69623-4.48166,11.73432-15.156,11.73432-15.156A39.40147,39.40147,0,0,1,476.57487,124.2315Z"/><path class="cls-2" d="M469.82051,136.95062c-1.021,2.13428-7.46335,8.30636-7.46335,8.30636l-1.51792-3.28923S470.34835,135.8472,469.82051,136.95062Z"/><path class="cls-2" d="M473.59555,146.11862l-6.42127,7.95235-.828-2.4111a26.41048,26.41048,0,0,1,3.716-3.58864C470.841,147.61323,473.59555,146.11862,473.59555,146.11862Z"/><path class="cls-2" d="M473.77769,126.24505a66.81209,66.81209,0,0,1,1.95374,6.621c.30931,1.76038.78255,8.11715.78255,8.11715l-.71061,2.10548s-.04861-7.38342-.538-9.67233c-.2328-1.08882-.95607-4.06114-.95607-4.06114Z"/><path class="cls-2" d="M474.34649,161.55306a5.53879,5.53879,0,0,0,1.44707-.875,36.93264,36.93264,0,0,0,5.47272-19.76714,55.6752,55.6752,0,0,0-2.99325-15.26673l-.62906.10821s2.85966,9.09364,2.91568,15.8198C480.62038,148.86587,474.34649,161.55306,474.34649,161.55306Z"/><path class="cls-2" d="M264.57727,112.51014l-9.78168-2.34316s4.66763,51.84663,8.32179,72.98139c4.52555,26.17469,22.18533,103.91023,22.18533,103.91023L297.223,270.56985s-21.5066-68.46249-29.32632-106.48273C264.913,149.58006,264.57727,112.51014,264.57727,112.51014Z"/><path class="cls-3" d="M462.99409,136.87228a8.88892,8.88892,0,0,1,.17893,1.92729,20.43694,20.43694,0,0,1-2.05011,3.94972,14.7073,14.7073,0,0,1,.11692-2.26312A26.07037,26.07037,0,0,1,462.99409,136.87228Z"/></svg>