<svg xmlns="http://www.w3.org/2000/svg" width="1486.96" height="393.99" viewBox="0 0 1486.96 393.99"><defs><style>.cls-1{fill:#c3b69d;}</style></defs><g id="Layer_7" data-name="Layer 7"><rect class="cls-1" width="1486.96" height="393.99"/><path d="M1395.82,180.73h6.42a12.83,12.83,0,0,1,9.35,4.14,14.45,14.45,0,0,1,3.9,9.94v69.9a14.45,14.45,0,0,1-3.9,9.94,12.83,12.83,0,0,1-9.35,4.14h-109a12.87,12.87,0,0,1-9.36-4.14,14.48,14.48,0,0,1-3.89-9.94V251a3.51,3.51,0,0,0-.43-1.74,3.1,3.1,0,0,0-4.37-1.25l1.6,2.94-1.6-2.93-51.53,31.61V179.93L1275,211.42a3,3,0,0,0,1.79.59,3.31,3.31,0,0,0,3.2-3.4v-13.8a14.48,14.48,0,0,1,3.89-9.94,12.87,12.87,0,0,1,9.36-4.14h6.36a3.17,3.17,0,0,0,3-2,3.49,3.49,0,0,0-1.57-4.51l-1.34,3.09,1.33-3.08a31.5,31.5,0,0,1-13.07-12.09,34,34,0,0,1-4.84-17.6,33.6,33.6,0,0,1,9-23.08,29.48,29.48,0,0,1,43.46,0,33.6,33.6,0,0,1,9,23.08,34,34,0,0,1-4.83,17.6,31.58,31.58,0,0,1-12.84,12,3.41,3.41,0,0,0-2.11,3.2,3.31,3.31,0,0,0,3.2,3.39h39.5a3.17,3.17,0,0,0,3-2,3.49,3.49,0,0,0-1.57-4.51l-1.33,3.09,1.32-3.08a31.56,31.56,0,0,1-13.07-12.09,34,34,0,0,1-4.83-17.6,33.55,33.55,0,0,1,9-23.08,29.46,29.46,0,0,1,43.45,0,33.6,33.6,0,0,1,9,23.08,34,34,0,0,1-4.83,17.6,31.49,31.49,0,0,1-12.83,12,3.41,3.41,0,0,0-2.11,3.2,3.3,3.3,0,0,0,3.19,3.39Zm10.2-6.4a39.08,39.08,0,0,0,6.92-8.5,41,41,0,0,0,5.86-21.26,40.55,40.55,0,0,0-10.88-27.88,35.58,35.58,0,0,0-52.5,0,39.56,39.56,0,0,0-7.67,11.85,39.58,39.58,0,0,0-7.68-11.85,35.58,35.58,0,0,0-52.5,0,40.59,40.59,0,0,0-10.87,27.88,41,41,0,0,0,5.86,21.26,38.79,38.79,0,0,0,6.92,8.5,19.36,19.36,0,0,0-10.1,5.74,21.51,21.51,0,0,0-5.76,14.74v7.93l-51.53-31.61-1.6,2.93,1.6-2.94a3.1,3.1,0,0,0-4.37,1.24,3.52,3.52,0,0,0-.43,1.75V285.46a3.3,3.3,0,0,0,3.2,3.4,3.11,3.11,0,0,0,1.79-.58l51.34-31.49v7.92a21.51,21.51,0,0,0,5.76,14.74,19.05,19.05,0,0,0,13.88,6.13h109a19,19,0,0,0,13.87-6.13,21.47,21.47,0,0,0,5.77-14.74v-69.9a21.47,21.47,0,0,0-5.77-14.74,19.37,19.37,0,0,0-10.09-5.74Zm-58.27-13.74a42.22,42.22,0,0,1-2.66,5.24,38.9,38.9,0,0,1-6.51,8.11h18.33a38.86,38.86,0,0,1-6.5-8.11,39.64,39.64,0,0,1-2.66-5.24Z"/><path d="M1391.63,198.69h-86.55a3.3,3.3,0,0,0-3.2,3.4v54.34a3.3,3.3,0,0,0,3.2,3.39h86.55a3.3,3.3,0,0,0,3.2-3.39V202.09a3.3,3.3,0,0,0-3.2-3.4Zm-83.36,6.8h80.17V253h-80.17V205.49Z"/></g></svg>