<svg xmlns="http://www.w3.org/2000/svg" width="1486.96" height="393.99" viewBox="0 0 1486.96 393.99"><defs><style>.cls-1{fill:#d87a8f;}.cls-2{fill:#60605e;}.cls-3{fill:#431022;}.cls-4{fill:#460d22;}.cls-5{fill:#e83c69;}</style></defs><g id="Layer_3" data-name="Layer 3"><rect class="cls-1" width="1486.96" height="393.99"/><rect class="cls-2" x="14.21" y="189.34" width="5.3" height="5.3"/><polygon class="cls-3" points="1420.24 224.9 1343.53 236.5 1309.59 306.28 1274.85 236.9 1198 226.19 1253.25 171.71 1239.68 95.31 1308.57 131.02 1377.04 94.51 1364.37 171.06 1420.24 224.9"/></g><g id="Layer_5" data-name="Layer 5"><polygon class="cls-4" points="1309.12 37.56 1351.34 123.1 1445.74 136.82 1377.43 203.4 1393.56 297.42 1309.12 253.03 1224.69 297.42 1240.81 203.4 1172.5 136.82 1266.9 123.1 1309.12 37.56"/></g><g id="Layer_6" data-name="Layer 6"><g id="Outlined_Mnemonics_Logos" data-name="Outlined Mnemonics Logos"><g id="Id"><path class="cls-5" d="M1282,143.82v81.73c0,.88-.4,1.28-1.12,1.28h-15.61c-.72,0-1-.4-1-1.28V143.82c0-.72.4-1,1.12-1h15.53a.9.9,0,0,1,1,.8A.29.29,0,0,1,1282,143.82Z"/><path class="cls-5" d="M1327.92,228.1a39.55,39.55,0,0,1-17.12-3.58,27.74,27.74,0,0,1-12-10.84c-3-4.86-4.38-10.91-4.38-18.16a32.71,32.71,0,0,1,4.38-16.81,33.08,33.08,0,0,1,12.66-12.35c5.58-3.1,12.27-4.62,20.16-4.62a14.13,14.13,0,0,1,1.67.08c.72.08,1.51.08,2.47.16V136.81c0-.56.24-.88.8-.88h16.17a.7.7,0,0,1,.79.56v76c0,1.43.08,3,.16,4.78s.24,3.26.32,4.62a1.29,1.29,0,0,1-.79,1.27,60.81,60.81,0,0,1-13,3.83A70.17,70.17,0,0,1,1327.92,228.1Zm7.81-15.93v-35a20.28,20.28,0,0,0-2.15-.4c-.88-.08-1.75-.16-2.63-.16a19.68,19.68,0,0,0-9,2.07,17.88,17.88,0,0,0-6.77,5.9c-1.76,2.55-2.63,6-2.63,10.11a22.33,22.33,0,0,0,1.35,8.21,15.62,15.62,0,0,0,3.59,5.66,13.78,13.78,0,0,0,5.41,3.18,20.86,20.86,0,0,0,6.62,1c1.19,0,2.31-.08,3.34-.16A6.77,6.77,0,0,0,1335.73,212.17Z"/></g></g></g></svg>