<svg xmlns="http://www.w3.org/2000/svg" width="1486.96" height="393.99" viewBox="0 0 1486.96 393.99"><defs><style>.cls-1{fill:#41a0da;}.cls-2{fill:#132035;}.cls-3{fill:#53a0d8;}</style></defs><g id="Layer_3" data-name="Layer 3"><rect class="cls-1" width="1486.96" height="393.99"/></g><g id="Layer_7" data-name="Layer 7"><g id="Layer_2" data-name="Layer 2"><g id="Surfaces"><g id="Photo_Surface" data-name="Photo Surface"><g id="Outline_no_shadow" data-name="Outline no shadow"><path class="cls-2" d="M1252.26,100.71h127.56a35,35,0,0,1,35,35V258.3a35,35,0,0,1-35,35H1252.26a34.94,34.94,0,0,1-35-35V135.69A34.94,34.94,0,0,1,1252.26,100.71Z"/></g></g></g><g id="Outlined_Mnemonics_Logos" data-name="Outlined Mnemonics Logos"><g id="Ps"><path class="cls-3" d="M1261.73,235.76V151.08c0-.58.24-.91.82-.91,1.4,0,2.72,0,4.61-.08s4-.08,6.25-.16,4.61-.09,7.16-.17,5-.08,7.49-.08c6.75,0,12.34.82,17,2.55a29.33,29.33,0,0,1,11,6.75,26.25,26.25,0,0,1,6,9.38,31.56,31.56,0,0,1,1.89,10.7q0,10.6-4.94,17.52a28.14,28.14,0,0,1-13.25,10c-5.59,2.06-11.76,2.8-18.51,2.8-2,0-3.29,0-4.12-.08s-2-.08-3.54-.08v26.41a1,1,0,0,1-.9,1.16h-16C1262.06,236.83,1261.73,236.5,1261.73,235.76Zm17.94-69.71V193.7c1.15.09,2.22.17,3.21.17h4.36a30.62,30.62,0,0,0,9.46-1.48,14.22,14.22,0,0,0,6.75-4.36c1.73-2.06,2.55-4.86,2.55-8.48a13.61,13.61,0,0,0-1.89-7.32,11.93,11.93,0,0,0-5.76-4.69,24.12,24.12,0,0,0-9.71-1.65c-2.14,0-4,0-5.6.08a19.28,19.28,0,0,0-3.37.08Z"/><path class="cls-3" d="M1375.29,188.68a29.12,29.12,0,0,0-7.9-2.79,43.32,43.32,0,0,0-9.22-1.07,16.32,16.32,0,0,0-4.93.57,4.29,4.29,0,0,0-2.56,1.65,4.37,4.37,0,0,0-.65,2.22,3.62,3.62,0,0,0,.82,2.14,9.12,9.12,0,0,0,2.8,2.22c1.89,1,3.86,1.89,5.84,2.72a60,60,0,0,1,12.67,6,19.1,19.1,0,0,1,6.5,6.84,17.73,17.73,0,0,1,1.9,8.47,19.17,19.17,0,0,1-3.21,10.95,20.67,20.67,0,0,1-9.22,7.32,37.66,37.66,0,0,1-14.89,2.63,56.83,56.83,0,0,1-11.2-1.07,33.15,33.15,0,0,1-8.39-2.63,1.62,1.62,0,0,1-.91-1.56V219a.9.9,0,0,1,.33-.74.61.61,0,0,1,.74.08,35.27,35.27,0,0,0,10.21,4,38.47,38.47,0,0,0,9.71,1.24,15.68,15.68,0,0,0,6.83-1.16,3.8,3.8,0,0,0,2.22-3.45,4.37,4.37,0,0,0-2-3.29c-1.32-1.07-4-2.31-8.07-3.87a50.15,50.15,0,0,1-11.68-5.93,21.26,21.26,0,0,1-6.26-7,17.74,17.74,0,0,1-1.89-8.39,19.35,19.35,0,0,1,2.8-10,20.2,20.2,0,0,1,8.64-7.57c3.87-2,8.72-2.88,14.56-2.88a70.14,70.14,0,0,1,10.21.74,28.68,28.68,0,0,1,7.07,1.89,1.46,1.46,0,0,1,.83.74,4.26,4.26,0,0,1,.16,1v13.41a1,1,0,0,1-.41.82A2.12,2.12,0,0,1,1375.29,188.68Z"/></g></g></g></g></svg>