<svg xmlns="http://www.w3.org/2000/svg" viewBox="0 0 259.62 266.86"><g id="Layer_1" data-name="Layer 1"><path d="M126,0S92.36,26.94,90.55,69.67c0,0,.68,26.89-28.55,33.91-22.52,5.4-12.67,27.73-8.11,33.32,4.34,5.31,30.63,28.82,22.52,48.64S53.89,245,53.89,245-20.22,190.75,5.38,94.06C33.4,10.16,110.29,0,126,0Z"/><path d="M162.57,6.3S144,53,153.28,95c1.52,4.62,6.28,5.83,8.12,6.31,6.17,1.62,12.27,2,26.44,2.86,13.29.77,23.21,11.21,15.26,23.7,0,0-28.82,37.83-21.61,59.45s26.11,51.34,26.11,51.34,67.69-44.35,48.64-135.1C240.93,30.62,177.88,10.81,162.57,6.3Z"/><path d="M140.11,50.67c-1.26,5.71-5.43,9.65-9.32,8.79s-7.34-9.41-2.39-14.84c4.31-4.75,7.76-6.7,10.82-5C142.69,41.6,141.36,45,140.11,50.67Z"/><path d="M106.12,71.72c1.77-.5,5.81.58,14.54,1,3.89.16,8.7-1.2,14.67-.54a.9.9,0,0,1,.83.91c-.15,5.07-3.63,31.14-19.23,20-5.18-3.74-10.32-15-11.71-19.62A1.33,1.33,0,0,1,106.12,71.72Z"/><path d="M78.27,259.18l36.42-43.3s14-16.15,28.07-1,35.77,41.81,35.77,41.81S137.72,277.82,78.27,259.18Z"/><path d="M103.31,49.33c0,5.85,3.23,10.59,7.21,10.59s9.19-7.6,5.53-14c-3.19-5.56-6.14-8.22-9.5-7.19C102.74,39.91,103.32,43.49,103.31,49.33Z"/></g></svg>