<svg xmlns="http://www.w3.org/2000/svg" viewBox="0 0 1920 1080"><defs><style>.cls-1{fill:#dcd200;}.cls-2{fill:#e4ff22;}.cls-3{fill:#aab2ff;}.cls-11,.cls-3{opacity:0.6;}.cls-4{fill:#00ffda;}.cls-5{fill:#63dffc;}.cls-6{fill:#fce900;}.cls-7{fill:#f9ed1c;}.cls-8{fill:#f9f43e;}.cls-9{fill:#ff6;}.cls-10{fill:#fafcfa;}.cls-11{fill:#d38fff;}.cls-12{fill:#77fc77;}.cls-13{fill:#8c8c8c;opacity:0.5;}.cls-14{fill:#875d00;}.cls-15{fill:#ffba1f;}.cls-16{font-size:130px;}.cls-16,.cls-18,.cls-42{fill:#4f393b;}.cls-16,.cls-18{font-family:FredokaOne-Regular, Fredoka One;}.cls-17{letter-spacing:-0.04em;}.cls-18{font-size:69px;}.cls-19{letter-spacing:-0.02em;}.cls-20{letter-spacing:-0.01em;}.cls-21{letter-spacing:-0.03em;}.cls-22{letter-spacing:-0.04em;}.cls-23{letter-spacing:-0.03em;}.cls-24{letter-spacing:-0.02em;}.cls-25{fill:#58af85;}.cls-26{fill:#8b8b8c;opacity:0.51;}.cls-27{fill:#754c24;}.cls-28{fill:#b4dcf9;}.cls-29{fill:#d193bb;}.cls-30{fill:#f16722;}.cls-31{fill:#f06017;}.cls-32{fill:#f1a787;}.cls-33{fill:#f1651e;}.cls-34{fill:#ea4141;}.cls-35{fill:#c2c2c3;}.cls-36{fill:#d2e1e1;}.cls-37{fill:#6d7b6d;}.cls-38{fill:#6d6f8f;}.cls-39{fill:#3c3c3c;}.cls-40{fill:#be7598;}.cls-41{fill:#e4916d;}.cls-43{fill:#ba2631;}.cls-44{fill:#895a78;}.cls-45{fill:#0606fc;}.cls-46{fill:#f1a686;}.cls-47{fill:#8ccff9;}.cls-48{fill:#a57799;}.cls-49{fill:#070706;opacity:0.35;}.cls-50{fill:#0b0b0b;}.cls-51{fill:#060606;}.cls-52{fill:#e10202;}.cls-53{fill:#a86b38;}.cls-54{fill:#70575a;}.cls-55{fill:#fc5656;}.cls-56{fill:#00b7ff;}.cls-57{fill:#ebeded;}</style></defs><g id="Layer_14" data-name="Layer 14"><rect class="cls-1" x="-1.14" y="0.33" width="1920" height="1080"/><path class="cls-2" d="M1846.75,26.33c-9.63,5.54-23.32,9-38.5,9s-28.87-3.46-38.5-9H1692.2c-9.63,5.54-23.31,9-38.5,9s-28.86-3.46-38.5-9h-77.5c-9.63,5.54-23.31,9-38.5,9s-28.86-3.46-38.5-9h-77.54c-9.63,5.54-23.32,9-38.5,9s-28.87-3.46-38.5-9h-77.1c-9.64,5.54-23.32,9-38.5,9s-28.87-3.46-38.5-9h-77.55c-9.63,5.54-23.32,9-38.5,9s-28.87-3.46-38.5-9H920c-9.63,5.54-23.32,9-38.5,9s-28.87-3.46-38.5-9H765.46c-9.63,5.54-23.31,9-38.5,9s-28.86-3.46-38.5-9h-77c-9.63,5.54-23.31,9-38.5,9s-28.87-3.46-38.5-9H456.89c-9.63,5.54-23.32,9-38.5,9s-28.87-3.46-38.5-9h-77.5c-9.64,5.54-23.32,9-38.5,9s-28.87-3.46-38.5-9H147.84c-9.63,5.54-23.32,9-38.5,9s-28.87-3.46-38.5-9h-74v949h1920v-949Z"/><path class="cls-2" d="M70.4,26.33c-9.63-5.53-23.31-9-38.5-9S3,20.8-6.6,26.33Z"/><path class="cls-2" d="M225,26.33c-9.63-5.53-23.32-9-38.5-9s-28.87,3.47-38.5,9Z"/><path class="cls-2" d="M379.45,26.33c-9.63-5.53-23.32-9-38.5-9s-28.87,3.47-38.5,9Z"/><path class="cls-2" d="M534,26.33c-9.64-5.53-23.32-9-38.5-9s-28.87,3.47-38.5,9Z"/><path class="cls-2" d="M688,26.33c-9.63-5.53-23.32-9-38.5-9s-28.87,3.47-38.5,9Z"/><path class="cls-2" d="M842.57,26.33c-9.63-5.53-23.31-9-38.5-9s-28.86,3.47-38.5,9Z"/><path class="cls-2" d="M997.07,26.33c-9.63-5.53-23.31-9-38.5-9s-28.86,3.47-38.5,9Z"/><path class="cls-2" d="M1151.62,26.33c-9.63-5.53-23.32-9-38.5-9s-28.87,3.47-38.5,9Z"/><path class="cls-2" d="M1305.72,26.33c-9.63-5.53-23.31-9-38.5-9s-28.87,3.47-38.5,9Z"/><path class="cls-2" d="M1460.27,26.33c-9.63-5.53-23.32-9-38.5-9s-28.87,3.47-38.5,9Z"/><path class="cls-2" d="M1614.77,26.33c-9.63-5.53-23.32-9-38.5-9s-28.87,3.47-38.5,9Z"/><path class="cls-2" d="M1769.31,26.33c-9.63-5.53-23.31-9-38.5-9s-28.86,3.47-38.5,9Z"/><path class="cls-2" d="M1923.52,26.33c-9.63-5.53-23.32-9-38.5-9s-28.87,3.47-38.5,9Z"/><rect class="cls-3" x="1126.96" y="446.72" width="271.4" height="156.21" rx="71.33"/><rect class="cls-3" x="894.91" y="391.43" width="464.1" height="156.21" rx="77.38"/><rect class="cls-3" x="691.36" y="470.22" width="473.6" height="156.21" rx="77.38"/><path class="cls-4" d="M70.4,262.33c-9.63-5.53-23.31-9-38.5-9S3,256.8-6.6,262.33Z"/><path class="cls-4" d="M225,262.33c-9.63-5.53-23.32-9-38.5-9s-28.87,3.47-38.5,9Z"/><path class="cls-4" d="M379.45,262.33c-9.63-5.53-23.32-9-38.5-9s-28.87,3.47-38.5,9Z"/><path class="cls-4" d="M534,262.33c-9.64-5.53-23.32-9-38.5-9s-28.87,3.47-38.5,9Z"/><path class="cls-4" d="M688,262.33c-9.63-5.53-23.32-9-38.5-9s-28.87,3.47-38.5,9Z"/><path class="cls-4" d="M842.57,262.33c-9.63-5.53-23.31-9-38.5-9s-28.86,3.47-38.5,9Z"/><path class="cls-4" d="M997.07,262.33c-9.63-5.53-23.31-9-38.5-9s-28.86,3.47-38.5,9Z"/><path class="cls-4" d="M1151.62,262.33c-9.63-5.53-23.32-9-38.5-9s-28.87,3.47-38.5,9Z"/><path class="cls-4" d="M1305.72,262.33c-9.63-5.53-23.31-9-38.5-9s-28.87,3.47-38.5,9Z"/><path class="cls-4" d="M1460.27,262.33c-9.63-5.53-23.32-9-38.5-9s-28.87,3.47-38.5,9Z"/><path class="cls-4" d="M1614.77,262.33c-9.63-5.53-23.32-9-38.5-9s-28.87,3.47-38.5,9Z"/><path class="cls-4" d="M1769.31,262.33c-9.63-5.53-23.31-9-38.5-9s-28.86,3.47-38.5,9Z"/><path class="cls-4" d="M1923.52,262.33c-9.63-5.53-23.32-9-38.5-9s-28.87,3.47-38.5,9Z"/><path class="cls-4" d="M1916.86,262.33v713H-3.14v-713h74c9.63,5.54,23.32,9,38.5,9s28.87-3.46,38.5-9h77.55c9.63,5.54,23.31,9,38.5,9s28.86-3.46,38.5-9h77.5c9.63,5.54,23.31,9,38.5,9s28.86-3.46,38.5-9h77.54c9.63,5.54,23.32,9,38.5,9s28.87-3.46,38.5-9h77c9.63,5.54,23.32,9,38.5,9s28.87-3.46,38.5-9H843c9.63,5.54,23.32,9,38.5,9s28.87-3.46,38.5-9h77.5c9.63,5.54,23.32,9,38.5,9s28.87-3.46,38.5-9h77.55c9.63,5.54,23.31,9,38.5,9s28.86-3.46,38.5-9h77.1c9.63,5.54,23.31,9,38.5,9s28.87-3.46,38.5-9h77.54c9.63,5.54,23.32,9,38.5,9s28.87-3.46,38.5-9h77.5c9.63,5.54,23.32,9,38.5,9s28.87-3.46,38.5-9h77.55c9.63,5.54,23.31,9,38.5,9s28.87-3.46,38.5-9Z"/><path class="cls-5" d="M70.4,510.33c-9.63-5.53-23.31-9-38.5-9S3,504.8-6.6,510.33Z"/><path class="cls-5" d="M225,510.33c-9.63-5.53-23.32-9-38.5-9s-28.87,3.47-38.5,9Z"/><path class="cls-5" d="M379.45,510.33c-9.63-5.53-23.32-9-38.5-9s-28.87,3.47-38.5,9Z"/><path class="cls-5" d="M534,510.33c-9.64-5.53-23.32-9-38.5-9s-28.87,3.47-38.5,9Z"/><path class="cls-5" d="M688,510.33c-9.63-5.53-23.32-9-38.5-9s-28.87,3.47-38.5,9Z"/><path class="cls-5" d="M842.57,510.33c-9.63-5.53-23.31-9-38.5-9s-28.86,3.47-38.5,9Z"/><path class="cls-5" d="M997.07,510.33c-9.63-5.53-23.31-9-38.5-9s-28.86,3.47-38.5,9Z"/><path class="cls-5" d="M1151.62,510.33c-9.63-5.53-23.32-9-38.5-9s-28.87,3.47-38.5,9Z"/><path class="cls-5" d="M1305.72,510.33c-9.63-5.53-23.31-9-38.5-9s-28.87,3.47-38.5,9Z"/><path class="cls-5" d="M1460.27,510.33c-9.63-5.53-23.32-9-38.5-9s-28.87,3.47-38.5,9Z"/><path class="cls-5" d="M1614.77,510.33c-9.63-5.53-23.32-9-38.5-9s-28.87,3.47-38.5,9Z"/><path class="cls-5" d="M1769.31,510.33c-9.63-5.53-23.31-9-38.5-9s-28.86,3.47-38.5,9Z"/><path class="cls-5" d="M1923.52,510.33c-9.63-5.53-23.32-9-38.5-9s-28.87,3.47-38.5,9Z"/><path class="cls-5" d="M1916.86,510.33v570H-3.14v-570h74c9.63,6.8,23.32,11,38.5,11s28.87-4.24,38.5-11h77.55c9.63,6.8,23.31,11,38.5,11s28.86-4.24,38.5-11h77.5c9.63,6.8,23.31,11,38.5,11s28.86-4.24,38.5-11h77.54c9.63,6.8,23.32,11,38.5,11s28.87-4.24,38.5-11h77c9.63,6.8,23.32,11,38.5,11s28.87-4.24,38.5-11H843c9.63,6.8,23.32,11,38.5,11s28.87-4.24,38.5-11h77.5c9.63,6.8,23.32,11,38.5,11s28.87-4.24,38.5-11h77.55c9.63,6.8,23.31,11,38.5,11s28.86-4.24,38.5-11h77.1c9.63,6.8,23.31,11,38.5,11s28.87-4.24,38.5-11h77.54a60.13,60.13,0,0,0,21,9.08,77.25,77.25,0,0,0,17.46,2c15.19,0,28.87-4.24,38.5-11h77.5c9.63,6.8,23.32,11,38.5,11,.64,0,1.27,0,1.9,0,14.43-.33,27.37-4.5,36.6-11h77.55c9.63,6.8,23.31,11,38.5,11s28.87-4.24,38.5-11Z"/><path class="cls-1" d="M1878.25,793.68a497.83,497.83,0,0,1-5.75,75.65,492,492,0,0,1-85.71,211H980.29a492,492,0,0,1-85.71-211,497.83,497.83,0,0,1-5.75-75.65c0-273.22,221.49-494.71,494.71-494.71S1878.25,520.46,1878.25,793.68Z"/><path class="cls-6" d="M1818.34,793.57a431.78,431.78,0,0,1-6.67,75.76,427.48,427.48,0,0,1-103.25,211H1070.14a427.48,427.48,0,0,1-103.25-211,431.78,431.78,0,0,1-6.67-75.76c0-237,192.1-429.06,429.06-429.06S1818.34,556.61,1818.34,793.57Z"/><path class="cls-7" d="M1753.86,795.33a364.12,364.12,0,0,1-137,285H1160.82a364.12,364.12,0,0,1-137-285c0-201.58,163.42-365,365-365S1753.86,593.75,1753.86,795.33Z"/><path class="cls-8" d="M1680.68,805.77a297,297,0,0,1-9.15,63.56c-26.33,102.41-105.85,182.71-206.45,211H1304.67A295.71,295.71,0,0,1,1089,784.89c5.77-163.38,142.89-291.14,306.26-285.38S1686.44,642.4,1680.68,805.77Z"/><circle class="cls-9" cx="1381.75" cy="796.96" r="231.21"/><circle class="cls-10" cx="1383.79" cy="798.19" r="174.63"/><rect class="cls-11" x="622.57" y="239" width="341.24" height="156.21" rx="71.33"/><rect class="cls-11" x="222.69" y="175.7" width="583.51" height="156.21" rx="77.38"/><rect class="cls-11" x="103.81" y="281.5" width="595.46" height="156.21" rx="77.38"/><rect class="cls-12" x="-3.19" y="866.7" width="1920" height="211"/><rect class="cls-11" x="1459.81" y="600.07" width="423.28" height="156.21" rx="71.33" transform="translate(3342.89 1356.34) rotate(180)"/><path class="cls-11" d="M1916.81,536.77V693H1732.69a77.64,77.64,0,0,1-77.14-71.29q-.24-3-.24-6.09v-1.44a76.14,76.14,0,0,1,1.3-14.09,77.67,77.67,0,0,1,76.08-63.29Z"/><path class="cls-11" d="M1916.81,642.56V798.77h-51.47a77.59,77.59,0,0,1-69-42.5,76.58,76.58,0,0,1-8.37-34.88V720a76.54,76.54,0,0,1,4.89-27,77.66,77.66,0,0,1,72.49-50.41Z"/></g><g id="Layer_6" data-name="Layer 6"><rect class="cls-13" x="-0.46" width="1917" height="1080"/><rect class="cls-14" x="614.96" y="200.8" width="747.87" height="725.93" rx="120"/><rect class="cls-15" x="604.13" y="179.17" width="747.87" height="725.93" rx="120"/><text class="cls-16" transform="translate(853.37 412.46)"><tspan class="cls-17">Ø</tspan><tspan x="95.55" y="0">V!</tspan></text><text class="cls-18" transform="translate(737.65 529.61)">Sophus <tspan class="cls-19" x="256.54" y="0">f</tspan><tspan x="286.21" y="0">orb</tspan><tspan class="cls-20" x="399.99" y="0">l</tspan><tspan class="cls-21" x="421.86" y="0">e</tspan><tspan x="459.33" y="0">v </tspan><tspan x="34.43" y="82.8">su</tspan><tspan class="cls-22" x="109.98" y="82.8">l</tspan><tspan class="cls-19" x="129.79" y="82.8">t</tspan><tspan x="159.39" y="82.8">en. Bed</tspan><tspan class="cls-23" x="399.92" y="82.8">r</tspan><tspan x="429.38" y="82.8">e </tspan><tspan x="-32.57" y="165.6">held næ</tspan><tspan class="cls-24" x="234.6" y="165.6">s</tspan><tspan class="cls-19" x="267.23" y="165.6">t</tspan><tspan x="296.84" y="165.6">e gang!</tspan></text><path class="cls-25" d="M342.14,958.32c-2.8-2.29-5.61-4.59-8.43-6.87l-.13-.64Q337.68,954.56,342.14,958.32Z"/><ellipse class="cls-26" cx="545.14" cy="948" rx="263.5" ry="24"/><path class="cls-27" d="M690.28,696.37c-1.47-2.21,39.55,38.12,46.32,67.21,5,21.36,3.12,42.38-4.62,62.81-19.38,51.2-70.54,87.63-123.17,99.88q-5.12,1.18-10.23,2.07c22.25-3.83,42.35-20.49,56.41-37.33,16.3-19.52,27.92-46.51,33.08-59a152.64,152.64,0,0,0,11-50.11C700.23,753.05,696.68,706,690.28,696.37Z"/><path class="cls-28" d="M675.81,666.82c-4.45-7.36-5.43-10-10.41-10.4a1,1,0,0,1-.91-.76A56.54,56.54,0,0,0,654.25,636a1,1,0,0,1,1-1.69,1,1,0,0,0,1.11-1.57c-3.1-5.14-6.21-10.26-9.24-15.43-1.44-2.45-2.65-5-4-7.53a4.89,4.89,0,0,1-.15-4.1c2.13-6.49,2.84-13.27,3.34-20,.62-8.55-2.39-16.22-7.17-23.1-4.18-6-8.84-11.7-13.34-17.5-1.46-1.87-3.08-3.63-4.62-5.45a7.83,7.83,0,0,0,.17,1.3c1.87,6.65,3.89,13.27,5.6,20a127.76,127.76,0,0,1,4.26,27.89c.12,4.39.14,8.81,0,13.2a60.82,60.82,0,0,1-2.3,14.55,1.36,1.36,0,0,1-.45.8,1.29,1.29,0,0,1-1,0c-5.91-1.32-11.46-2.75-17.59-2.75H590.34c-10.42,0-21.93-.88-31.28,4.51-4.68-8.71-11-16.37-15.19-25.39-7.64-16.52-22.52-52.86-45.66-48-41.79,8.72-53.27,68.55-46.69,102.09,3.67,18.78,18,35.7,33.28,47.27,19.6,14.86,42.48,24.23,61,41.16,17.34,15.8,32.22,32.05,40.22,54.2a117,117,0,0,1,4.78,62.56c26.09,2.3,68.43,2,99-17.89a207.73,207.73,0,0,0,13-47.29C708.93,747.18,697.17,702.11,675.81,666.82Zm-161.1-70.27s.08-.13.13-.19c0-.35,0-.7-.07-1.05a1.18,1.18,0,0,0-.06-.27l-.14-.39c0-1-.08-1.94-.12-2.95l.43-1.69a1.19,1.19,0,0,1,.11-.26c.27-.48.49-1.17.86-1.26,1.7-.44,3.08.36,4.17,2.37a25.41,25.41,0,0,1,2.91,13.56l.15.35-.22.08c-.61,1.1-.81,3-2.4,2.65a4.74,4.74,0,0,1-2.68-2.57c-1.15-2.58-1.92-5.33-2.85-8A3,3,0,0,1,514.71,596.55Zm9.2,20.89c-1.41,1.28-3.17,2.06-5.12,1-1.42-.77-2.92-1.52-3.25-3.2a1,1,0,0,1,1.33-1.22c3.36,1.08,4.92.3,7-3a42.67,42.67,0,0,0,1.93-3.82l.38-.73a1,1,0,0,1,1.91.11,1.11,1.11,0,0,1,.08.47C528,611,526.94,614.68,523.91,617.44ZM632,574a21.22,21.22,0,0,0,.09-2.4,4.35,4.35,0,0,1,.71-2,4.73,4.73,0,0,1,1.09-1.14c1.16-.83,2-.08,2.63.94a15.56,15.56,0,0,1,1.6,4c.25.83.6,1.64.8,2.49a10.83,10.83,0,0,1,.18,2.48,6.71,6.71,0,0,1-1.6,4.57c-.34.38-.58.19-1-.08a9.38,9.38,0,0,1-3.3-3.84C632.48,577.6,631.66,575.63,632,574Zm8.92,13.29c-.4,3-2,5.07-4.72,3.67-2-1-2.37-2.9-2.65-5.15-.14-1,.06-.79.73,0s1.56,1.45,2.21,2.21a1.89,1.89,0,0,0,2.22,0c.52-.57,1-.95,1.47-1.47,1.22.47.53-.48,1.75,0C641.92,587.07,641,586.81,640.91,587.31Zm109.8,338.46c-.39-.57-1.89-.85-4.11-.9h0c-10.38-.28-36.69,4.08-41.82,4.39h-.11q-4.27.22-8.46.28c-11.1.19-21.82-.38-32.56-1.18-12-.89-24.07-2.07-36.75-2.8a10,10,0,0,1-6.09-2.22c-3,1.36-6.09,2.66-9.19,3.86-12.53,4.87-25.49,8.2-36.62,7.53.53,1.17.74,3,.75,5.87,0,9.73,91.36,2.59,104.76,1.93h0l.68,0q21.62-.82,43.2-1.79C728.65,940.52,759,938,750.71,925.77Z"/><path class="cls-29" d="M669.62,650.64a6.49,6.49,0,0,1-1.28,2.94c-1.55,2-4.26,3.16-7.38,3.85-6.07,1.34-13.72.93-17.61,1.54a279.89,279.89,0,0,0-29.2,6.13c-24.62,6.56-46.86,20.51-71.4,26.67a9.2,9.2,0,0,1-5.24.2c-4.23-1.5-3-7.68-.4-13.63a53.42,53.42,0,0,1,6.85-11.7,85,85,0,0,1,22.86-18.06c7-3.81,12.15-6.34,20.21-3.72,9,2.92,17.32,2.37,25.5-2.68,4.43-2.74,8.28-10.22,13.67-10.55a97.72,97.72,0,0,1,28.26,2.47c4.55,1.09,9.43,4.53,12.41,8.06A10.8,10.8,0,0,1,669.62,650.64Z"/><path class="cls-30" d="M751.09,921.45a7.3,7.3,0,0,1-3.4,3l-1.09.42h0a74.54,74.54,0,0,1-20.28,4c-7.17.45-14.37.19-21.54.38h-.11l-1.74,0-6.72.23c-10.28.37-20.56.65-30.81.67a401.63,401.63,0,0,1-53.78-3c-.89-.11-1.79-.23-2.68-.36,1.11-.42,2.2-.94,3.34-1.26a222.05,222.05,0,0,0,39.43-15.2,197,197,0,0,0,23.85-14.17l.11-.06a55.16,55.16,0,0,1,6.5-4.49c.78-.43,3.92,3,4.67,3.38,2.63,1.55,6,2.35,8.85,3.38q9.33,3.36,18.75,6.46A201.92,201.92,0,0,0,735.2,908c4.43.46,9.92-.57,14,1.63S753.45,917.7,751.09,921.45Z"/><path class="cls-31" d="M714.6,904.92a12.9,12.9,0,0,1-2.74-.47l.53-.26.36.1.09,0Z"/><path class="cls-28" d="M571.94,957c-3.5,2.67-9.35,2.47-13.53,2.73-6.9.43-13.81.83-20.71,1.24-21.87,1.3-44.47,1.11-66.05,5.14-4.06.76-7.35-.69-10.89-2.29-3.06-1.38-6.12-2.73-9.19-4.08-10.2-4.5-20.45-8.88-30.65-13.39a80.45,80.45,0,0,1-8.13-4.36c-6.1-3.63,3.76-20.48,6.57-21.6a.46.46,0,0,1,.47,0c6.42,4.45,12.72,9.49,19.17,14.34,8.77,6.6,17.84,12.87,27.95,16.9,5.94.45,7.8,1.46,11.54.88,15.56-2.45,32-3.67,47.93-4.78,8.55-.6,17.1-1.17,25.63-1.92,3.57-.32,16.64-3.84,19.3-1.14h0C574.55,948,575.53,954.3,571.94,957Z"/><path class="cls-32" d="M690.66,901.8c-3.93,1.31-7.8,3.8-11.56,5.59-3.54,1.7-6.89,4.14-11,4.14-3,0-2.43-2.83-1.07-4.57,2.5-3.19,5-6.49,7.79-9.44,1.31-1.39,6-6.62,7.85-6.31a2.36,2.36,0,0,1,2.14,2.68l-6.39,7.59a13.33,13.33,0,0,0,4.92-1.6c2.34-1.2,4.79-2.85,7.43-3.61,3.34-1,4.68-.21,5.91,3l-1.84,8c3.33-1.61,6.28-3,9.21-4.48.24-.12.35-.52.52-.79,1.27-.14,2.57-.2,3.82-.45,2.58-.52,3.55.14,4.19,3l-20.2,9.76a9.09,9.09,0,0,1-1.52.64c-2.11.57-3.5-.65-3-2.77.59-2.34,1.44-4.61,2.15-6.91a10.41,10.41,0,0,0,.74-3.45Z"/><path class="cls-33" d="M714.6,904.92a12.9,12.9,0,0,1-2.74-.47l.53-.26.36.1.09,0Z"/><path class="cls-34" d="M286.1,744.5c0,.66,0,1.31,0,2C286.11,745.81,286.1,745.16,286.1,744.5Z"/><path class="cls-35" d="M621.23,539.58l-.71-1.32C620.75,538.7,621,539.14,621.23,539.58Z"/><path class="cls-35" d="M620.29,537.75l-.43-.77Z"/><path class="cls-36" d="M577,944.87l.75.49Z"/><path class="cls-36" d="M588.22,944.88h0Z"/><path class="cls-37" d="M480.54,884.53l-12.7,0A8.28,8.28,0,0,1,470,884C473.49,884.15,477,884.36,480.54,884.53Z"/><path class="cls-38" d="M398.85,702.86l0-.71a3,3,0,0,1,.21.49C399,702.7,398.91,702.79,398.85,702.86Z"/><path class="cls-38" d="M398.9,700.86c0-.24-.06-.47-.1-.7a2.12,2.12,0,0,1,.25.47S399,700.78,398.9,700.86Z"/><path class="cls-38" d="M398.59,696.25l-.12-.69a2.59,2.59,0,0,1,.3.46S398.65,696.17,398.59,696.25Z"/><path class="cls-39" d="M514.92,589.87c-.16.64-.33,1.27-.49,1.91C514.59,591.14,514.76,590.51,514.92,589.87Z"/><path class="cls-40" d="M522.86,604.85a.28.28,0,0,1,.07-.43l.15.35Z"/><path class="cls-39" d="M514.84,596.36a.49.49,0,0,1,.09.56,2.4,2.4,0,0,1-.22-.37S514.79,596.42,514.84,596.36Z"/><path class="cls-39" d="M514.47,594.35l.29.82Z"/><path class="cls-41" d="M736.93,927.37l.85-.27Z"/><path class="cls-42" d="M312,755.13c.08-6.91.12-13.83.28-20.73.11-4.82.39-9.63.6-14.63,10.45-6.45,10.26-6.32,14.13-8.66,6.3-3.8,10.42-5.6,16.73-9.37,3.47-2.07,7.21-3.69,10.83-5.51l.76.66c-4.86,3.45-4.78,8.88-5.13,13.87-.59,8.34.39,16.65,1.79,24.89a19.74,19.74,0,0,1,.1,2.31,153.77,153.77,0,0,1-18.44,11.47c-7.23,7.72-14,8.84-19.88,12.31-.29.26-.63.47-1.32,1-.11-2.38-.2-4.3-.29-6.21Z"/><path class="cls-27" d="M356.77,696.16l-.77-.67a64,64,0,0,1,17.57-7,13.84,13.84,0,0,1,16.59,9.53c1.24,4,.4,8-1,11.9-1.77,5.08-5.14,8.83-9.24,12.06.43-4,1-8,1.26-12,.26-3.39-1-6.48-2.56-9.37-3.33-6-14.11-9.72-20.42-5.19A9.58,9.58,0,0,1,356.77,696.16Z"/><path class="cls-43" d="M379.49,726l.36-.84Z"/><path class="cls-44" d="M653.22,641.05c4.65.25,9.83,1.51,11,6.05.13.49-15.35-.85-16.66-.88a132.36,132.36,0,0,0-25.5,2.39c-28.66,5.17-50.92,20.48-76.48,33.07a16.4,16.4,0,0,1,4.93-6.19c27.12-19.61,65.74-33.44,99.12-34.47C650.74,641,652,641,653.22,641.05Z"/><path class="cls-39" d="M631.52,573.86l.29.81C631.72,574.4,631.62,574.13,631.52,573.86Z"/><path class="cls-39" d="M631.77,569.77l-.36.85Z"/><path class="cls-39" d="M639,575.92l-.35-.86Z"/><path class="cls-31" d="M690.65,901.76l.39-.34-.12.6Z"/><path class="cls-31" d="M468.75,912l-1,.29.72-.65Z"/><path class="cls-42" d="M428.67,905.66c-1.47,2.21-14.73,23.35-15,23.35-31.19-10.81-55.16-36.27-71.3-64.32A204.7,204.7,0,0,1,323,818.39a190.6,190.6,0,0,1-5-23c-.41-2.63-4.79-22-3.32-23.18,2.24-1.87,4.14-3.54,6.13-5.09,4.5-3.51,8.82-7.33,13.64-10.33,4.27-2.66,8.7-5.08,13.15-7.47C351.15,803.09,380.11,858.7,428.67,905.66Z"/><path class="cls-45" d="M389.68,571.09c.8-1.62,1.61-3.22,2.42-4.78C391.3,567.87,390.49,569.47,389.68,571.09Z"/><path class="cls-45" d="M398.48,554.34q-1.11,2-2.24,4.12C397,557.06,397.73,555.69,398.48,554.34Z"/><path class="cls-30" d="M571.35,944.68c-2.35,3.45-11.27,1.81-14.77,1.84q-11.25.12-22.48.8-16,1-32,3.08c-9,1.19-18.54,3.85-27.63,2.81-11.17-1.27-21.38-7.17-30.59-13.27-1.23-.82-2.66-1.71-4.2-2.67-6.88-4.28-16-9.85-19.64-15.48a8.32,8.32,0,0,1-.72-1.38c-2.72-6.69,6.1-12.34,9-15.73a50.44,50.44,0,0,1,9.54-8.55c1.58-1.1,3.23-2.13,4.9-3.1,23-13.28,49.37-11.09,68.13,7.87,7.18,7.25,13.86,15.29,22.76,20.3a64,64,0,0,0,9,3.33C556.09,928.91,577.55,935.67,571.35,944.68Z"/><path class="cls-42" d="M440.46,500.35c-.29.38-22.36,20.49-33.43,39.06a490.74,490.74,0,0,0-29.94,58.85c-11.48,27-21.8,58.36-26.87,91.78-4.46,2.38-8.83,5-13.12,7.64-3.67,2.3-7.29,4.69-10.88,7.12-2.85,1.93-7.83,6.86-11,7.05,0-8.62,2.83-18.34,4.35-26.86,1-5.7,2.4-11.34,3.62-17,1.64-5.45,3.2-10.94,5-16.37,12.68-39.1,33-76.77,60.26-107.69C399.73,531,426.4,510.2,440.46,500.35Z"/><path class="cls-46" d="M468.7,911.86a97.69,97.69,0,0,1,13.19-2.93c7.94-1.45,18.83-2.91,26.53.34,1.22.52,2.48,1.46,2.53,2.79a2.87,2.87,0,0,1-1.51,2.4,9.16,9.16,0,0,1-2.82.92c-6.9,1.48-13.66,3.82-19.52,7.84,2.4-1.65,7.45-1.89,10.29-2.36a86.87,86.87,0,0,1,10.92-1.1c4.43-.17,9.38-.34,13.74.53a10.35,10.35,0,0,1,5.32,2.63c-.75,1.68-3,2.14-4.79,1.88A79.59,79.59,0,0,0,493,926c-5.67,1.29-11.14,3.32-16.65,5.16-.9.3-2.05.53-2.65-.19-2.43-2.9,5.41-8.76,7.23-10a71.6,71.6,0,0,1,11.72-5.85c2.69-1.15,5.5-2,8.71-3.21a75.23,75.23,0,0,0-17,.74,117.33,117.33,0,0,0-20.22,4.54c-1.51.47-3.43.14-3.28-1.89a4.91,4.91,0,0,1,1.21-2.52A36.85,36.85,0,0,1,474.35,903a61.74,61.74,0,0,1,7.37-3.21c.43-.15,6.43-2.34,6.32-2.48-1.44-1.79-6.35-1.94-8.45-2.2a49.27,49.27,0,0,0-10-.23,48.56,48.56,0,0,0-19.12,5.55,8,8,0,0,1,.09-2.39,5,5,0,0,1,1.71-2,17.49,17.49,0,0,1,5.72-3.26,33,33,0,0,1,11.61-2.15c5.83,0,11.7-.34,17.35,1.42a48.44,48.44,0,0,1,8.46,3.6c3.66,2-.39,4.3-2.73,5-8.84,2.6-18,5.35-24.85,11.56Z"/><path class="cls-47" d="M689.84,835a191.71,191.71,0,0,1-38.23,59.85c-6.37,6.7-12.92,13.2-20.39,18.76a71.72,71.72,0,0,1-9.33,5.92c-2.23,1.19-10.46,7.46-1.08,3.77-15.2,6.85-31.92,12.22-45.81,11.39-1.18-2.64-3.9-2-9.22-2.71-8.37-1.09-15.3-4.6-23.19-6.94,0,0-16.64-6.14-16.64-6.15,7.08-4,29.9-2.78,35.2-9a163.52,163.52,0,0,0,17-23.47,109,109,0,0,0,12.65-33.52C616.93,855.23,659.27,855,689.84,835Z"/><path class="cls-48" d="M661,657.43c-6.07,1.34-13.72.93-17.61,1.54a279.89,279.89,0,0,0-29.2,6.13c-24.62,6.56-46.86,20.51-71.4,26.67a9.2,9.2,0,0,1-5.24.2c-4.23-1.5-3-7.68-.4-13.63.36,4.27,2.24,8.68,8.49,8.61a156.69,156.69,0,0,0,37.83-14.9S607,661.74,618.8,660.26c4.42,0,22.84-6.63,34.63-3.68A38.32,38.32,0,0,1,661,657.43Z"/><path class="cls-49" d="M451.57,959.76c-10.2-4.5-20.45-8.88-30.65-13.39a80.45,80.45,0,0,1-8.13-4.36c-6.1-3.63,3.76-20.48,6.57-21.6-2.72-6.69,6.1-12.34,9-15.73a50.44,50.44,0,0,1,9.54-8.55c-1.52,8.74-2.86,23.43,1.11,38.61.22.84.46,1.69.72,2.53A64,64,0,0,0,451.57,959.76Z"/><path class="cls-49" d="M680.51,942.53c-13.4.66-104.74,7.8-104.76-1.93,0-2.88-.22-4.7-.75-5.87.52,1.16,9.64-.57,10.82-.81a146.27,146.27,0,0,0,16-4.68c18.22-6.58,32.46-10.1,49.86-18.86a65.11,65.11,0,0,0,11.94,18c.57.62,1.15,1.23,1.75,1.85A93.68,93.68,0,0,0,680.51,942.53Z"/><path class="cls-47" d="M526.69,611.8c-1.79,1.9-2.59,5.31-6.88,4.39a12.12,12.12,0,0,1-7-5.24c-2.79-5-4.55-10.17-6.72-15.28.28-.35.23-.7-.17-1,0-.74,0-1.47-.05-2.21l-.68-1.55.21-4.74,1.6-3.4c.89-.82,1.61-2.26,2.72-2.37a11.27,11.27,0,0,1,11,5.17A34.69,34.69,0,0,1,527,611C526.5,611.2,526.41,611.47,526.69,611.8Z"/><path class="cls-50" d="M515.56,613.55c4.31,1.7,6,1.18,8.32-2.53.75-1.2,1.28-2.54,1.92-3.81.33-.66.68-1.3,1.31-2.49.53,1.11,1.1,1.74,1.06,2.33-.22,3.93-1.23,7.64-4.26,10.39-1.41,1.28-3.17,2.06-5.12,1S515,616.5,515.56,613.55Z"/><path class="cls-47" d="M642.1,584.88c-1.31,1.39-1.9,3.89-5,3.21a8.82,8.82,0,0,1-5.11-3.84c-2-3.63-3.33-7.44-4.92-11.18.21-.26.17-.51-.13-.75l0-1.62-.5-1.14.15-3.47,1.18-2.49c.65-.6,1.17-1.65,2-1.73a8.26,8.26,0,0,1,8.09,3.78,25.4,25.4,0,0,1,4.51,18.65C642,584.44,641.89,584.64,642.1,584.88Z"/><path class="cls-50" d="M637.15,587.67c1.22,0,2.78-2.66,3.46-3.4,1.58-1.73,1.34,3.42,1.2,4.08a3.84,3.84,0,0,1-5.54,2.72,6.24,6.24,0,0,1-3.09-3.78c-.35-1.3.1-2.63-.31-3.94a16.84,16.84,0,0,0,2.64,3.26,3,3,0,0,0,1.54,1Z"/><path class="cls-51" d="M641.24,579.81s-11,4.2-12.13-3.36"/><path class="cls-27" d="M629.71,619.75c-5.38,15.33-19.78,28.52-36,27.76a31.67,31.67,0,0,1-4.63-.57c-17.62-3.55-29.41-22-38.23-38.4l-20-37.31c-5.05-9.41-10.86-19.52-20.79-23.48a24.37,24.37,0,0,0-12.16-1.42,33.53,33.53,0,0,0-17.26,7.81c-8,6.84-13,16.56-16.84,26.39-11.69,30.09-13.34,66.1,4.38,93.07,19.45,29.59,56.58,41.51,83.27,64.79a120.85,120.85,0,0,1,12.92,169c-6.85,8.11-16.35,15.86-26.86,14.37-11.3-1.6-18.15-12.79-26.27-20.82a55.83,55.83,0,0,0-82.73,4.72c-46.61-38.37-76.68-96.17-81.38-156.34L350.22,690c7.48-49.34,25.28-99.19,51.33-141.75,3-5,4.65-10.73,8-15.52,11.37-16.43,26.35-31.22,43.88-40.81C476,479.59,503,478.59,528.72,480.22c20.71,1.31,42.13,4.44,59.41,15.92,24.63,16.36,36.18,46.49,42,75.48C633.26,587.55,635.09,604.43,629.71,619.75Z"/><path class="cls-52" d="M398.36,705.77a32.08,32.08,0,0,1-5.25,14.08,38.25,38.25,0,0,1-4.89,5.74,88.63,88.63,0,0,1-8.81,5.66c0-2,.15-4.33.34-6.45.25-2.76,1-3.29,3-5.2a27.43,27.43,0,0,0,7.17-11.49,17.1,17.1,0,0,0-.28-11.51c-6.09-14.5-24.09-6.34-33.61-1.1-3.62,1.82-7.35,3.43-10.82,5.5-5.83,3.49-11.57,7.1-17.34,10.66-4.24,2.63-12.95,5.57-14,11-1.07,5.83-.18,12.93-.18,18.87,0,6.13-1.28,13.87.3,19.74,6.93-3.61,12.51-9.26,19.19-13.27,2-1.16,20.34-9.8,20.34-10.78.61,2.6,1.22,5.21,1.83,7.8-14.07,7.77-27.27,15.36-39.43,26-2.85,2.52-.39,10.45.2,13.77q1.31,7.17,2.74,14.32c.78,4,2.92,9.53,2.21,13.34-19.11-4.85-28.52-26.18-32.56-43.62a106.2,106.2,0,0,1,6.39-66.26,94.21,94.21,0,0,1,15.51-24.36A45.57,45.57,0,0,1,323.14,668c-1.21,5.68-2.59,11.32-3.61,17-1.49,8.35-3.41,16.26-4.18,24.64-.08.84-.14,1.69-.2,2.55,2.31-1.85,4.76-3.52,7.2-5.18,13.29-9.07,26.76-18.21,41.86-23.77,4.59-1.7,9.4-3.06,14.3-3,11.66.11,19.52,9.39,20,20.66A28.62,28.62,0,0,1,398.36,705.77Z"/><path class="cls-53" d="M379.62,725.91c-.55,7.31.26,14.63.3,21.94,0,5.47.78,15.94-4.76,19.31a6.83,6.83,0,0,1-6.6-.15c-7.67-4-11.12-13.88-13.14-21.64A119.19,119.19,0,0,1,352,706.23a19.49,19.49,0,0,1,1.15-5.87c1.85-4.39,6-6.53,10.56-6.84,5.87-.4,12.32,2.26,15,7.1,3.69,6.68,2.26,14.1,1.36,21.4C379.86,723.32,379.72,724.62,379.62,725.91Z"/><path class="cls-54" d="M368.56,767c-7.67-4-11.12-13.88-13.14-21.64A119.19,119.19,0,0,1,352,706.23a19.49,19.49,0,0,1,1.15-5.87c1.85-4.39,6-6.53,10.56-6.84C363.22,694.82,353,725.11,368.56,767Z"/><path class="cls-53" d="M431.51,665.55c-.08.36-.16.71-.25,1.07-1.37,5.38-4.32,10.73-9.43,12.77s-10.12,1.15-14.69-1.4c-9.54-5.35-17.2-18-20.34-26.12-13.41-34.63.9-84.29,33.66-103.83a5,5,0,0,1,1-.45,3.87,3.87,0,0,1,3.89.62c6.14,5.77-2.48,18.9-4.36,25-6.57,21.38,3.3,43.14,8.65,63.56C432.12,646.17,433.56,656.07,431.51,665.55Z"/><path class="cls-54" d="M407.14,678c-9.54-5.35-17.2-18-20.34-26.12-13.41-34.63.9-84.29,33.66-103.83a5,5,0,0,1,1-.45l3.89.62S370.88,594.76,407.14,678Z"/><path class="cls-55" d="M323.14,668c-1.21,5.68-2.59,11.32-3.61,17-1.49,8.35-3.41,16.26-4.18,24.64-5.44,7.06-14.47,17.58-22.43,21.08a17.3,17.3,0,0,1-6.26,2,105.58,105.58,0,0,1,8.25-30.12,94.21,94.21,0,0,1,15.51-24.36A45.57,45.57,0,0,1,323.14,668Z"/><path class="cls-42" d="M589.08,646.94c-17.62-3.55-29.41-22-38.23-38.4l-20-37.31c-5.05-9.41-10.86-19.52-20.79-23.48a24.37,24.37,0,0,0-12.16-1.42l.33-.68s33.63-6.24,49.84,34.29,32.27,62,39,64.92A5.33,5.33,0,0,1,589.08,646.94Z"/><path class="cls-47" d="M612.3,692.84s21,1.43,27.87-18.49C640.08,674.44,633.52,718.24,612.3,692.84Z"/><path class="cls-51" d="M512.68,602.37s11.71,1.53,11-6.07"/><path class="cls-56" d="M512.5,602.21s-8.89,20.23,0,23C511.73,624.8,521.33,624.72,512.5,602.21Z"/><ellipse class="cls-57" cx="513.52" cy="616.73" rx="1" ry="4.5"/></g></svg>