<svg xmlns="http://www.w3.org/2000/svg" viewBox="0 0 259.59 266.86"><defs><style>.cls-1{fill:#fff;}</style></defs><g id="Layer_1" data-name="Layer 1"><path class="cls-1" d="M4.9,133.64c3,52.66,21,84.12,45,108.07,20,17.22,24.32,16.36,48.53,22.61a130.45,130.45,0,0,0,29.06,2.5c2.89-.07,38.56,1.1,65.74-18.33,39.39-22.74,61.93-65,64-114.85C257.18,60.08,199.85,5.27,129.43,0,76.52-1.65.69,60.2,4.9,133.64Z"/><path d="M125.93,0S92.35,27,90.54,69.69c0,0,.68,26.89-28.55,33.91-22.51,5.4-12.66,27.73-8.1,33.32,4.33,5.31,30.61,28.82,22.51,48.63S53.89,245,53.89,245-20.22,190.75,5.38,94.08C33.4,10.19,110.28,0,125.93,0Z"/><path d="M162.55,6.34S144,53,153.26,95c1.52,4.63,6.28,5.83,8.12,6.31,6.17,1.62,12.27,2.05,26.44,2.86,13.28.77,23.2,11.21,15.26,23.7,0,0-28.82,37.83-21.62,59.44s26.12,51.33,26.12,51.33,67.67-44.34,48.63-135.08C240.9,30.65,177.86,10.84,162.55,6.34Z"/><path d="M140.09,50.7c-1.26,5.71-5.43,9.64-9.32,8.79s-7.34-9.41-2.39-14.85c4.32-4.74,7.77-6.7,10.83-5C142.68,41.63,141.34,45,140.09,50.7Z"/><path d="M106.11,71.74c1.76-.5,5.8.59,14.54,1,3.88.17,8.7-1.19,14.66-.53a.91.91,0,0,1,.84.9c-.15,5.07-3.64,31.14-19.23,20-5.19-3.74-10.33-15-11.71-19.61A1.34,1.34,0,0,1,106.11,71.74Z"/><path d="M78.26,259.18l36.41-43.3s14-16.14,28.07-1,35.76,41.81,35.76,41.81S137.7,277.82,78.26,259.18Z"/><path d="M103.3,49.36c0,5.84,3.22,10.58,7.21,10.59s9.19-7.61,5.53-14c-3.19-5.56-6.14-8.22-9.5-7.19C102.73,39.94,103.31,43.51,103.3,49.36Z"/></g></svg>